<svg id="Modo_de_isolamento" data-name="Modo de isolamento" xmlns="http://www.w3.org/2000/svg" viewBox="0 0 1113.86 139.64"><title>logo.wide.black</title><path d="M41.55,139.64a50.77,50.77,0,0,1-21.69-4.39A34.06,34.06,0,0,1,5.22,122.81,33.23,33.23,0,0,1,0,104.32H26a13.58,13.58,0,0,0,2.29,7.41,11.91,11.91,0,0,0,5.76,4.4,24,24,0,0,0,8.42,1.37,20.91,20.91,0,0,0,7-1.1A11.94,11.94,0,0,0,54.54,113a7.89,7.89,0,0,0,2-5.39c0-3.05-1.58-5.31-4.76-6.78S43.86,98.1,37.52,97c-4-.61-7.35-1.22-10-1.83A59.33,59.33,0,0,1,18.21,92a30.11,30.11,0,0,1-8.6-5.22A24.77,24.77,0,0,1,4,78.7,27.93,27.93,0,0,1,1.65,66.8a27.73,27.73,0,0,1,11-22.69q11-8.79,28.82-8.79t28.74,9.06q10.89,9.06,10.89,23.89H55.64q0-11.71-14.83-11.72-6.23,0-9.7,2.57a8.17,8.17,0,0,0-3.47,6.95,6.13,6.13,0,0,0,1,3.39A8.53,8.53,0,0,0,31,71.93a16,16,0,0,0,4.3,1.74q2.93.81,4.94,1.19l6,1.09c2.32.49,4,.83,5,1s2.62.52,4.94,1a40.29,40.29,0,0,1,5.21,1.37l4.76,1.74a17.44,17.44,0,0,1,4.58,2.29q1.55,1.18,3.84,2.83a13.71,13.71,0,0,1,3.57,3.66c.85,1.35,1.71,2.81,2.56,4.4a16.7,16.7,0,0,1,1.74,5.49,45.92,45.92,0,0,1,.46,6.58q0,15.19-11.35,24.25T41.55,139.64Z"/><path d="M278.74,139.64a52.56,52.56,0,0,1-26.63-6.86,49.63,49.63,0,0,1-18.85-18.94,53.09,53.09,0,0,1-6.87-26.72q0-22.14,15-37t37.52-14.83q19.21,0,32.94,11.08t17.39,29.37H302.71a26.24,26.24,0,0,0-9.61-11.26,25.75,25.75,0,0,0-14.36-4.11,23.74,23.74,0,0,0-18,7.68q-7.23,7.69-7.23,19.22a27.4,27.4,0,0,0,7.32,19.4,23.54,23.54,0,0,0,17.94,7.87,24.48,24.48,0,0,0,14.27-4.3,28.07,28.07,0,0,0,9.7-12.35h26.91q-3.67,18.84-17.57,30.29T278.74,139.64Z"/><path d="M352.86,24.89V0h26.72V24.89Zm0,112V38.07h26.72V136.9Z"/><path d="M491.59,37.89h20v98.83H490.49l-2.2-8.79a47.36,47.36,0,0,1-32,11.71q-22.32,0-37.06-14.91T404.47,87.3q0-22.32,14.73-37.15t37.06-14.83q18.86,0,32.4,12.08ZM439.15,106.7q7.59,7.68,19.22,7.69t19.31-7.69q7.68-7.68,7.68-19.4t-7.68-19.4a26.1,26.1,0,0,0-19.22-7.69,27,27,0,0,0-13.82,3.57,25.79,25.79,0,0,0-9.61,9.7,27.52,27.52,0,0,0-3.47,13.82Q431.56,99,439.15,106.7Z"/><path d="M542.83,136.9V2.38h26.72V136.9Z"/><path d="M702.25,34.32q16.85,0,26.54,11.16t9.7,30v60H711.77V79.89q0-11.16-4.12-16.66t-13.09-5.49q-10.06,0-16.1,7t-6,18.85v52H645.7V1h26.72V45.85Q684.5,34.32,702.25,34.32Z"/><path d="M849.4,36.51h20v98.83H848.3l-2.2-8.78a47.36,47.36,0,0,1-32,11.71q-22.32,0-37.06-14.91T762.28,85.93q0-22.33,14.73-37.15T814.07,34q18.85,0,32.4,12.08ZM797,105.33q7.59,7.68,19.22,7.68t19.31-7.68q7.68-7.69,7.68-19.4t-7.68-19.4a26.06,26.06,0,0,0-19.22-7.69,27,27,0,0,0-13.82,3.57,25.72,25.72,0,0,0-9.61,9.7,27.59,27.59,0,0,0-3.47,13.82Q789.37,97.64,797,105.33Z"/><path d="M946.58,138.27A52.67,52.67,0,0,1,920,131.41a49.77,49.77,0,0,1-18.85-18.94,53.13,53.13,0,0,1-6.87-26.73q0-22.14,15-37T946.76,34Q966,34,979.7,45T997.09,74.4H970.55a26.24,26.24,0,0,0-9.61-11.26A25.71,25.71,0,0,0,946.58,59a23.75,23.75,0,0,0-18,7.69q-7.23,7.7-7.23,19.22a27.43,27.43,0,0,0,7.32,19.4,23.54,23.54,0,0,0,17.94,7.87,24.53,24.53,0,0,0,14.27-4.3,28.1,28.1,0,0,0,9.7-12.36h26.91q-3.68,18.85-17.57,30.29T946.58,138.27Z"/><path d="M1113.86,135.53h-32.4L1049.8,88.31v47.22h-26.72V1h26.72V80.62l29.65-43.92h30.93l-33.49,47Z"/><path d="M140.07,126.16a13.32,13.32,0,0,0,1.4,6,13.49,13.49,0,0,1-20.92-11.25c0-.14,0-.27,0-.41a13.44,13.44,0,0,0,13.06-13.06H134a13.48,13.48,0,0,1,12.09,7.51A13.48,13.48,0,0,0,140.07,126.16Z"/><path d="M133.63,107c0,.14,0,.28,0,.41a13.47,13.47,0,0,0-13.06,13.06,2.75,2.75,0,0,1-.41,0,13.48,13.48,0,0,1-11.24-20.92,13.49,13.49,0,0,0,17.22-4.66A13.48,13.48,0,0,1,133.63,107Z"/><path d="M128.35,87.48a13.4,13.4,0,0,1-2.22,7.43,13.49,13.49,0,0,0-17.22,4.66,13.47,13.47,0,0,1,0-24.17,13.53,13.53,0,0,0,17.22,4.66A13.34,13.34,0,0,1,128.35,87.48Z"/><path d="M133.63,68a13.47,13.47,0,0,1-7.5,12.09,13.5,13.5,0,0,0-11.26-6,13.24,13.24,0,0,0-6,1.4,13.49,13.49,0,0,1,11.24-20.93,2.75,2.75,0,0,1,.41,0,13.46,13.46,0,0,0,13.06,13.06C133.63,67.68,133.63,67.82,133.63,68Z"/><path d="M146.12,60.05A13.46,13.46,0,0,1,134,67.57a2.75,2.75,0,0,1-.41,0,13.45,13.45,0,0,0-13.06-13.06c0-.13,0-.27,0-.41a13.48,13.48,0,0,1,20.92-11.24,13.24,13.24,0,0,0-1.4,6A13.48,13.48,0,0,0,146.12,60.05Z"/><path d="M159.59,54.08a13.41,13.41,0,0,0,1.39,6,13.44,13.44,0,0,1-14.86,0,13.28,13.28,0,0,0,1.39-6,13.46,13.46,0,0,0-6-11.24,13.47,13.47,0,0,1,24.17,0A13.49,13.49,0,0,0,159.59,54.08Z"/><path d="M186.56,54.08a2.75,2.75,0,0,1,0,.41,13.46,13.46,0,0,0-13.06,13.06,2.75,2.75,0,0,1-.41,0A13.47,13.47,0,0,1,161,60.05a13.48,13.48,0,0,0,4.66-17.21,13.48,13.48,0,0,1,20.92,11.24Z"/><path d="M200.43,68a13.44,13.44,0,0,1-2.23,7.44,13.32,13.32,0,0,0-6-1.4A13.46,13.46,0,0,0,181,80.06,13.51,13.51,0,0,1,173.47,68c0-.14,0-.28,0-.41a13.45,13.45,0,0,0,13.06-13.06,2.75,2.75,0,0,1,.41,0A13.48,13.48,0,0,1,200.43,68Z"/><path d="M205.71,87.48a13.48,13.48,0,0,1-7.51,12.09A13.49,13.49,0,0,0,181,94.91a13.48,13.48,0,0,1,0-14.85A13.53,13.53,0,0,0,198.2,75.4,13.47,13.47,0,0,1,205.71,87.48Z"/><path d="M200.43,107A13.48,13.48,0,0,1,187,120.49a2.75,2.75,0,0,1-.41,0,13.45,13.45,0,0,0-13.06-13.06c0-.13,0-.27,0-.41A13.47,13.47,0,0,1,181,94.92a13.5,13.5,0,0,0,17.22,4.65A13.43,13.43,0,0,1,200.43,107Z"/><path d="M186.56,120.88a13.49,13.49,0,0,1-20.92,11.25A13.5,13.5,0,0,0,161,114.91a13.47,13.47,0,0,1,12.08-7.51h.41a13.45,13.45,0,0,0,13.06,13.06A2.82,2.82,0,0,1,186.56,120.88Z"/><path d="M165.64,132.13a13.48,13.48,0,0,1-24.17,0,13.5,13.5,0,0,0,4.65-17.22,13.49,13.49,0,0,1,14.86,0,13.49,13.49,0,0,0,4.66,17.22Z"/></svg>