<?xml version="1.0" encoding="utf-8"?>
<!-- Generator: Adobe Illustrator 25.0.0, SVG Export Plug-In . SVG Version: 6.00 Build 0)  -->
<svg version="1.1" id="Modo_de_isolamento" xmlns="http://www.w3.org/2000/svg" xmlns:xlink="http://www.w3.org/1999/xlink" x="0px"
	 y="0px" viewBox="0 0 688 121.9" style="enable-background:new 0 0 688 121.9;" xml:space="preserve">
<style type="text/css">
	.st0{fill:#FFFFFF;}
</style>
<path class="st0" d="M283.5,57.4c-0.3-5-1-9.8-1.6-14.7c-3.1,1.2-6.5,1.3-9.7,0.2c-4.6-5.3-4-14.5,1.3-19.3c2.6-2.7,6.3-3.6,9.9-3.6
	V5.6c-6.8-0.2-13.5,2.1-18.7,6.5c-6.2,5.3-9.9,13-10.1,21.1c0,7.5,2.7,15.6,8.3,20.8C268.8,58.4,276.5,58.4,283.5,57.4z"/>
<path class="st0" d="M327,28.4c-0.3,0.1-0.7-0.1-0.7-0.4c-0.2-0.7-0.4-1.4-0.5-2.1c-0.1-0.3,0-0.6,0.3-0.7c0.3-0.1,0.6,0,0.7,0.3
	c0,0,0,0.1,0,0.1c0.1,0.7,0.3,1.3,0.4,2.1C327.4,28,327.3,28.3,327,28.4C327,28.4,327,28.4,327,28.4z M326.9,36
	c-0.1,0.3-0.4,0.4-0.8,0.4c-0.2-0.1-0.4-0.4-0.4-0.7c0.2-0.5,0.2-1,0.4-1.4v-0.8c0-0.3,0.2-0.6,0.5-0.6c0.2,0,0.3,0.1,0.4,0.2
	C327.5,33.5,327,35.6,326.9,36L326.9,36z M325.8,40.8c-0.3,0.9-0.6,1.8-0.9,2.8c-0.1,0.3-0.4,0.4-0.7,0.4c-0.3-0.1-0.4-0.4-0.4-0.6
	c0.3-1,0.6-1.9,0.9-2.9c0.1-0.2,0.4-0.4,0.7-0.4C325.7,40.1,325.8,40.5,325.8,40.8L325.8,40.8z M324,18.4c0.4,0.8,0.8,1.6,1.2,2.3
	c0.1,0.3,0,0.6-0.2,0.8c-0.3,0.1-0.6,0.1-0.8-0.2c-0.5-0.7-0.8-1.5-1.1-2.3C322.9,18.4,323.7,17.9,324,18.4z M322.7,47.8
	c-0.2,0.3-0.5,0.6-0.8,0.9c0,0.2-0.2,0.3-0.5,0.3c-0.1,0-0.2-0.1-0.2-0.1c-0.3-0.1-0.3-0.5-0.2-0.7s0.5-0.7,0.7-1
	c0.2-0.2,0.5-0.3,0.8-0.2C322.7,47.1,322.8,47.5,322.7,47.8C322.7,47.7,322.7,47.8,322.7,47.8L322.7,47.8z M319.3,14.5
	c-0.2-0.2-0.2-0.6,0-0.7c0.2-0.3,0.7-0.3,0.8,0c1,1,1.4,1.7,2.1,2.3c0.3,0.3,0.3,0.6,0,0.8c-0.2,0.2-0.5,0.2-0.8,0
	C320.7,16,320,15.3,319.3,14.5L319.3,14.5z M318.6,51.8c-0.6,0.6-1.3,1-2,1.4c-0.2,0.1-0.4,0.1-0.6-0.1c0,0-0.1-0.1-0.1-0.1
	c-0.2-0.2-0.1-0.6,0.2-0.8c0.6-0.3,1.4-1.3,2.1-1.3c0.3,0,0.5,0.2,0.5,0.5C318.8,51.5,318.8,51.7,318.6,51.8L318.6,51.8z
	 M314.2,11.1c-0.2-0.3-0.4-0.6-0.2-0.8c0.2-0.4,0.4-0.3,0.8-0.3c1,0.5,1.9,1.1,2.8,1.7c0.3,0.2,0.4,0.5,0.2,0.7
	c-0.1,0.2-0.4,0.4-0.6,0.3c0,0-0.1,0-0.1-0.1C316.2,12,315.3,11.5,314.2,11.1L314.2,11.1z M313.5,54.8c-0.7,0.3-1.4,0.5-2.1,0.6
	c-0.2,0.1-0.5-0.1-0.6-0.4c-0.1-0.3,0.1-0.6,0.4-0.7c0.7-0.1,1.4-0.3,2.1-0.6c0.2-0.1,0.5,0.1,0.6,0.3c0,0,0,0.1,0,0.1
	C314.1,54.4,313.9,54.7,313.5,54.8L313.5,54.8z M308.2,9.8c0-0.3,0.2-0.6,0.5-0.6c0,0,0,0,0,0c0.7,0,1.4-0.2,2.1-0.2
	c0.4,0,0.5,0.3,0.5,0.6c0,0.2-0.2,0.5-0.4,0.5c0,0,0,0-0.1,0c-0.7,0.1-1.4,0.2-2.1,0.2C308.5,10.4,308.2,10,308.2,9.8L308.2,9.8z
	 M307.5,56.5c-0.8-0.1-1.5-0.2-2.3-0.2c-0.6,0-0.6-1,0-1c0.8,0.1,1.5,0.1,2.3,0.1c0.3-0.1,0.6,0,0.7,0.3s0,0.6-0.3,0.7
	C307.8,56.5,307.7,56.5,307.5,56.5L307.5,56.5z M304.5,11.3c-0.6,0.3-1.4,0.6-2.1,1c-0.3,0.1-0.6,0-0.8-0.2c-0.1-0.3,0-0.6,0.2-0.8
	c0.8-0.4,1.5-0.7,2.2-1c0.3-0.1,0.6,0,0.8,0.2C304.9,10.8,304.9,11.1,304.5,11.3L304.5,11.3z M302,55c-0.2,0.1-0.2,0.2-0.4,0.3
	c-0.5-0.1-1-0.3-1.4-0.6c-0.3-0.2-0.7-0.4-1-0.6s-0.3-0.5-0.2-0.8s0.5-0.4,0.7-0.2c0.4,0.3,0.9,0.6,1.3,0.8
	C301.6,54.3,302.2,54.3,302,55z M297.8,15.5c-0.2-0.2-0.2-0.5,0-0.8c0.6-0.6,1-1,1.5-1.5c0.2-0.2,0.7-0.2,0.8,0
	c0.2,0.2,0.2,0.5,0.1,0.7c0,0,0,0-0.1,0.1c-0.4,0.5-1,1-1.5,1.5C298.3,15.7,298,15.7,297.8,15.5L297.8,15.5z M297,50.7
	c-0.3,0.1-0.6,0.1-0.8-0.2c-0.3-0.6-0.5-1.2-0.7-1.6c-0.1-0.3,0.1-0.6,0.4-0.7c0,0,0,0,0,0c0.3,0,0.5,0.1,0.7,0.4
	c0.1,0.5,0.3,0.9,0.6,1.3C297.3,50.2,297.2,50.5,297,50.7z M294.2,20.5c-0.2,0-0.2-0.1-0.3-0.3s0-0.3,0.1-0.4
	c0.4-0.9,0.8-1.7,1.3-2.5c0.2-0.3,0.4-0.3,0.8-0.2c0.2,0.2,0.3,0.5,0.2,0.8c-0.5,0.8-1,1.6-1.4,2.5
	C294.8,20.6,294.5,20.7,294.2,20.5C294.2,20.6,294.2,20.5,294.2,20.5L294.2,20.5z M294.2,46.2c-0.3,0.1-0.8,0.1-0.8-0.2
	c-0.5-0.9-1-1.7-1.3-2.6c0-0.4,0-0.6,0.2-0.8c0.3-0.2,0.6-0.1,0.7,0.2c0,0,0,0,0,0c0.4,1,0.9,1.7,1.3,2.7
	C294.5,45.8,294.4,46.1,294.2,46.2L294.2,46.2z M291.5,27.2c-0.4-0.1-0.4-0.4-0.4-0.7c0.2-0.8,0.4-1.6,0.6-2.5s1.2-0.3,1,0.3
	c-0.2,0.8-0.4,1.7-0.6,2.5C292.1,27.2,291.7,27.3,291.5,27.2L291.5,27.2z M291.2,40c-0.3,0-0.5-0.3-0.5-0.6c0-0.6-0.1-1.2-0.2-1.7
	c0-0.3,0.3-0.6,0.6-0.6s0.6,0.3,0.6,0.6c0,0.6,0,1.2,0.1,1.7C291.9,39.7,291.5,40,291.2,40z M290.2,33.7c0.1-0.8,0.2-1.7,0.2-2.5
	c0-0.3,0.2-0.6,0.5-0.6c0,0,0,0,0.1,0c0.3,0,0.5,0.2,0.5,0.5c0,0,0,0.1,0,0.1c-0.1,0.8-0.1,1.7-0.1,2.5c0,0.3-0.3,0.6-0.6,0.6
	S290.2,34,290.2,33.7z M329.6,23.1c-1.5-5.8-5.5-10.4-10-14c-4.3-3.5-10.2-2.7-15.2-2.3c-6.3,1.1-11.1,6.1-13.8,11.7
	c-4.1,7.3-4.4,16.2-2.6,24.2c1.4,3.9,3.3,7.5,5.6,10.8c3,3.8,7.8,5.3,12.4,5.7c4.2,0.5,7.8-2.3,11.8-3.3c5.3-2.3,7.8-7.8,10.2-12.7
	C330.3,36.8,331.7,29.7,329.6,23.1L329.6,23.1z"/>
<path class="st0" d="M339.5,47.8c4.5-11,8.6-22.2,12.2-33.6c0.2-0.4,0.4-0.8,0.8-0.8s0.6,0.5,0.7,0.9c2.8,11.2,7.6,21.7,12.5,32.2
	c4.9-11.5,9.8-22.9,14.5-34.5c0.4-0.7,1-0.1,1,0.5c2.1,12.8,4.3,25.6,6.4,38.4c0.1,0.2,0.1,0.5-0.1,0.6c-0.4,0.4-0.9-0.2-1-0.8
	c-2.3-12.1-4.1-24.4-6-36.5c-4.7,11.1-9.4,22.2-14,33.5c-0.2,0.1-0.2,0.4-0.5,0.5c-0.5,0.2-0.9-0.4-1-0.8
	c-4.8-10.3-9.6-20.7-12.5-31.6c-3.7,11.9-8.3,23.5-12.9,35c-0.7,1.7-1.5,0.6-1-0.8C338.9,49.3,339.2,48.5,339.5,47.8z M392.6,55.5
	c-0.1-0.3-0.1-0.7-0.1-1c-6.2-42.1-6.8-45.5-7.2-48.7c-2.9-0.1-5.9,0.2-8.8,0.7c-0.2,1.7-0.5,3.4-1,5c-3,9.9-6.1,19.5-9.5,29.2
	c-3-11.1-6-22.2-9.8-33c-2.5,0.1-5,0.3-7.4,0.4c-4.9,11.4-8.5,23.3-12.2,35.2l-4.1,12.4l11.5,0.1C360.2,56.1,376.4,55.5,392.6,55.5z
	"/>
<path class="st0" d="M399.6,37.7c0-0.2,0.1-0.3,0.2-0.5c0.5-0.7,1-1.4,1.4-2.2c0.1-0.2,0.3-0.5,0.4-0.7c0.1-0.3,0.1-0.6,0-0.9
	c-0.3-5.2-0.3-10.3,0.1-15.5c-0.6,0.1-1.2-0.3-1.5-0.9c0-0.2,0.1-0.5,0.2-0.7c0.5-1.3,1-2.9,1.5-4.2c0.2-0.5,0.6-0.9,1-0.8
	s0.4,0.5,0.3,0.9c0,1.4,0.2,2.8,0.7,4.1c0.3,1,0.4,2.3-1.1,1.8c-0.3,4.9-0.3,9.8-0.1,14.6c0,0.3,0,0.5,0.1,0.8
	c0.1,0.3,0.4,0.6,0.7,0.8c0.6,0.8,1.1,1.5,1.7,2.3c0.2,0.4,0.4,1,0,1.2s-0.7-0.2-0.9-0.4c-0.5-0.7-0.9-1.2-1.2-1.8
	c-0.2,1.3,0.3,2.6,1.1,3.5c0.2,0.3,0.4,0.5,0.6,0.9c0,0.4-0.2,0.9-0.6,0.8c-0.2-0.1-0.4-0.2-0.4-0.4c-0.4-0.5-0.9-1-1.2-1.5
	c-0.2,0.7-0.4,1.3-0.7,2c-0.1,0.4-0.2,0.7-0.6,0.7c-0.2,0.1-0.5-0.2-0.5-0.5c-0.1-0.3,0-0.5,0.1-0.8c0.3-0.7,0.5-1.5,0.8-2.2
	c0.4-0.7,0.4-1.5,0.2-2.2c-0.4,0.7-0.9,1.3-1.2,1.9c-0.1,0.3-0.5,0.7-0.9,0.5S399.5,38,399.6,37.7z M406.2,47c0.5,0.5,1.1,1,1.8,1.4
	c0.4,0.2,0.8,0.6,1,1c0.2,0.4,0,1-0.5,1.1c0,0,0,0,0,0c0.8,0.7,1.7,1.3,2.8,1.6c1.6,0.7,3.4,0.9,5.2,0.8c2.5-0.4,4.7-1.9,6.1-4
	c0.2-0.2,0.4-0.5,0.6-0.8c0.2-0.4,0.2-0.9,0.2-1.3c0.1-1.1,0-2.1-0.3-3.2c-0.1-0.3-0.1-0.6-0.1-0.9c0.1-0.2,0.4-0.6,0.7-0.4
	c0.3,0,0.4,0.4,0.5,0.6c0.2,1.1,0.3,2.3,0.4,3.4c1-1.4,0.6-3.3,0.4-5c-0.1-0.4,0-1,0.4-1c0.2-0.2,0.4,0,0.6,0.2
	c0.1,0.2,0.2,0.5,0.2,0.8c0,0.9,0.2,1.8,0.2,2.7c1-0.6,1.9-1.2,2.8-1.7c0.3-0.1,0.6-0.3,0.9-0.1s0.2,0.5,0,0.7
	c0,0.2-0.2,0.4-0.4,0.6c-0.8,0.4-1.6,0.8-2.4,1.4c-0.8,0.5-1.4,1.2-1.6,2.1c0.7-0.4,1.5-0.8,2.3-1c0.3-0.2,0.7-0.3,1-0.2
	c0.6,0.3,0.2,0.8-0.1,1c-0.6,0.3-1.3,0.6-2,0.9c-0.7,0.3-1.4,0.6-2.1,1c-1,0.9-2,1.8-2.9,2.9c-1.9,1.7-4.4,2.6-7,2.4
	c-2.5-0.3-4.9-1.2-7-2.7c0,0.3-0.2,0.7-0.5,0.9c-0.3,0.2-0.7,0.3-0.9,0c-0.2-0.1-0.2-0.2-0.3-0.3c-0.7-1.8-1.3-3.5-2-5.3
	c-0.1-0.3-0.2-0.5-0.1-0.7c0.1-0.4,0.5-0.5,0.9-0.3c0.3,0.1,0.6,0.3,0.8,0.6C405.8,46.6,406,46.8,406.2,47L406.2,47z M427.7,16.8
	c-0.2-0.6-0.5-1.1-0.9-1.6c-0.5-0.6-1-1.1-1.6-1.5c-0.1-0.2-0.3-0.4-0.4-0.6c0-0.3,0.1-0.5,0.3-0.7c0.3-0.1,0.7,0.1,0.9,0.4
	c0.5,0.5,1,1.1,1.5,1.6c0.2-0.7,0.4-1.4,0.7-2.1c0.1-0.2,0.1-0.5,0.3-0.7s0.4-0.3,0.7-0.1s0.3,0.7,0.1,1c-0.5,1.3-1,2.9-0.5,4.1
	c0.3-0.6,0.6-1.2,1.1-1.8c0.3-0.4,0.7-0.7,1-0.5s0.1,0.9-0.2,1.2c-0.8,0.9-1.3,2-1.4,3.2c0,0.5,0,1,0,1.5c0.4,3.4,0.6,6.7,0.6,10.1
	c0.3,0.1,0.7,0.1,1,0c0.4,0,0.7,0.2,0.9,0.6c0,0.2-0.1,0.4-0.2,0.6c-0.6,1.3-1.1,2.7-1.7,4c-0.2,0.5-1.1,3.4-1.9,2.6
	c-0.2-0.2-0.2-0.5-0.2-0.9c-0.2-1.8-0.6-3.7-1.1-5.5c0-0.2-0.1-0.5,0-0.7c0.1-0.2,0.3-0.4,0.6-0.4c0.5-0.3,1.1-0.4,1.6-0.4
	c0-3.5-0.2-7-0.6-10.5c0-0.3-0.1-0.7-0.3-1c-0.4-1.1-1.9-1.5-2.8-2.4c-0.2-0.2-0.4-0.5-0.4-0.8c0-0.2,0.2-0.6,0.5-0.6
	c0.1,0.1,0.2,0.2,0.4,0.2c0.7,0.6,1.4,1.1,2.1,1.6V16.8z M398.3,48.4c1.9,3.7,4.6,7.4,8.5,9.2c5.2,2.6,11.5,2.3,16.7,0.1
	c2.7-1.2,4.4-3.5,6.3-5.6c2.2-2.4,2.9-5.7,3.8-8.6c2.3-8.2,1.7-16.8,0.9-25.1c-0.6-4-0.3-6.5-1.9-11.9c-4.2,1.2-8.4,2.1-12.7,2.5
	c0.6,4.4,0.4,8.9,1,13.3c0.8,5.8,0.7,11.7-0.4,17.4c-0.6,1.6-1,3.5-2.3,4.7c-1.5,1.4-3.7,1.7-5.4,0.7c-1.9-1.8-2.6-4.5-3-7
	c-1.1-10-0.7-20.3-0.4-30.4c-4.7,0-9.4-0.9-14-0.4c-0.6,9-0.6,18-0.1,27C395.8,39,396.2,43.9,398.3,48.4z"/>
<path class="st0" d="M467.7,4.7c-0.3,11.1-1,22.1-1,33.2c-6.6-11.1-12.9-22.4-20.2-33.1c-2.9-0.2-5.9-0.2-8.8,0
	c-0.3,4.6,0,9.3-0.1,13.9c0,12.2-0.9,24.6-0.4,36.8c12.3,0.8,24.6,1.2,36.8,2.4c0-0.2,0-0.3,0.1-0.5c1.2-17.8,1.2-18.7,1.2-19.6
	c0-11.2,0.8-22.3,0.9-33.4C473.4,4.3,470.6,4.6,467.7,4.7z"/>
<path class="st0" d="M486.4,11.3c-0.2,8.4-0.7,16.6-1,25c-0.2,4.7-0.2,9.5-0.9,14.1c-1.9,0.4-3.8,0.8-5.2,1.9
	c1.3,2.4,2.4,4.9,3.2,7.5c5.9-1.6,12-2.1,18-3.6c-0.1-2.8-0.3-5.5-0.8-8.2c-2.1,0.1-4.2,0.3-6.2,0.8c0.5-12.5,1.2-25,1.6-37.7
	c1.8,0,3.6-0.1,5.4-0.3c0-2.8,0.2-5.5,0.2-8.2c-7-0.4-14-0.2-21,0.7c-0.8,0.1-1.6,0.4-2.3,0.9c1,2.6,1.3,5.3,2.1,7.9
	C481.8,11.9,484.1,11.6,486.4,11.3z"/>
<path class="st0" d="M519.5,55.7c2.5,0.1,5.1-0.1,7.5-0.6c5.1-0.8,8.7-4.9,11.2-9.1c-11.4,0.7-22.8,1.5-34.2,2
	c-0.2,2.2-0.9,4.8,1,6.4C509.9,55.1,514.7,55.3,519.5,55.7z M540.9,39.1c-12.3,0.8-24.6,1.9-36.9,2.7v5.2
	c11.6-0.6,23.1-1.3,34.8-2.1C539.7,43,540.4,41,540.9,39.1z M541.6,33.7c-12.4,0.6-24.8,1.3-37.2,1.5c-0.2,1.7-0.2,3.6-0.4,5.4
	c12.4-0.8,24.8-1.9,37.1-2.8C541.3,36.4,541.5,35,541.6,33.7L541.6,33.7z M541.7,27.4c-12.2,0.5-24.6,0.8-36.9,1
	c-0.1,1.9-0.2,3.8-0.4,5.7c12.4-0.2,24.9-1,37.3-1.6V27.4z M540,19.7c-6.4,0.2-12.8,0.8-19.2,1c-5.1,0-10.1-0.2-15.2-0.3
	c-0.2,2.2-0.4,4.5-0.6,6.8c12.2-0.2,24.5-0.5,36.6-1C541.3,24,540.8,21.8,540,19.7z M539.5,18.6c-0.9-1.9-2-3.6-3.3-5.2
	C526,14,516.1,14.6,506,14.6c-0.1,1.6-0.2,3.1-0.3,4.7C517,19.7,528.2,19.5,539.5,18.6L539.5,18.6z M534.8,12.4
	c-3.8-3.2-8.8-3.8-13.5-4.7c-4.8-0.1-9.7,0.2-14.4,1c-1.2,1.3-0.8,3.2-0.8,4.8C515.7,13.5,525.2,12.9,534.8,12.4L534.8,12.4z"/>
<path class="st0" d="M567.4,17.7c2.4,5.4,4.6,11,7,16.5c-4.4,0-8.7,0.4-13.1,0.4C563.2,28.9,565.3,23.4,567.4,17.7z M556.1,49.7
	c0.7-2.2,1.5-4.3,2.3-6.5c6.6,0.6,13.2-0.6,19.9-0.1c1.7,4,3.4,8,5.3,12.1c2.6-1.5,5-3.2,7.5-4.6c-2.4-5.8-5.2-11.6-7.7-17.4
	c-3.7-8.4-7.1-17-10.7-25.4c-3.6,0.1-7.4,0.3-11.1,0.3c-2.1,6-4.5,12-6.6,18.1c-3.2,9-6.1,18.1-9.4,26.9c2.3,1.5,4.7,3.2,7,4.6
	C554.6,55.4,555.1,52.4,556.1,49.7z"/>
<path class="st0" d="M610.9,55.7c2.5,0.1,5.1-0.1,7.5-0.6c5.1-0.8,8.7-4.9,11.2-9.1c-11.4,0.7-22.8,1.5-34.2,2
	c-0.2,2.2-0.9,4.8,1,6.4C601.2,55.1,606.1,55.3,610.9,55.7z M632.3,39.1c-12.3,0.8-24.6,1.9-36.9,2.7v5.2
	c11.6-0.6,23.1-1.3,34.8-2.1C631.1,43,631.8,41,632.3,39.1z M633,33.7c-12.4,0.6-24.8,1.3-37.2,1.5c-0.2,1.7-0.2,3.6-0.4,5.4
	c12.4-0.8,24.8-1.9,37.1-2.8C632.7,36.4,632.9,35,633,33.7z M633.1,27.4c-12.2,0.5-24.6,0.8-36.9,1c-0.1,1.9-0.2,3.8-0.4,5.7
	c12.4-0.2,24.9-1,37.3-1.6L633.1,27.4z M631.4,19.7c-6.4,0.2-12.8,0.8-19.2,1c-5.1,0-10.1-0.2-15.2-0.3c-0.2,2.2-0.4,4.5-0.6,6.8
	c12.2-0.2,24.5-0.5,36.6-1C632.7,24,632.1,21.8,631.4,19.7L631.4,19.7z M630.9,18.6c-0.9-1.9-2-3.6-3.3-5.2
	c-10.1,0.6-20.1,1.1-30.1,1.1c-0.1,1.6-0.2,3.1-0.3,4.7C608.4,19.7,619.7,19.5,630.9,18.6L630.9,18.6z M626.2,12.4
	c-3.8-3.2-8.8-3.8-13.5-4.7c-4.8-0.1-9.7,0.2-14.4,1c-1.2,1.3-0.8,3.1-0.8,4.8C607.1,13.5,616.6,12.9,626.2,12.4L626.2,12.4z"/>
<path class="st0" d="M641.2,42.9c-0.7-0.7-1.4-1.6-1.9-2.5c-0.2-0.3-0.4-0.6-0.3-0.9c0.1-0.3,0.3-0.5,0.5-0.7
	c0.8-0.9,1.5-1.7,2.3-2.5c0.2-0.1,0.3-0.3,0.4-0.5c0-0.2-0.1-0.3-0.2-0.5c-0.4-1-1-1.7-1.4-2.7c-0.1-0.3-0.2-0.6-0.3-0.9
	c0.1-0.2,0.2-0.5,0.3-0.7c0.6-1,1.2-2,1.7-3.1c-0.9-0.4-1.8-0.9-2.6-1.5c-0.2,0-0.4-0.2-0.4-0.4c-0.1-0.3,0.2-0.5,0.4-0.7
	c0.8-1,1.7-2,2.5-3c-0.8-0.8-1.6-1.5-2.5-2.2c-0.2-0.3-0.5-0.6-0.5-0.9s0.3-0.4,0.4-0.6c0.9-1,1.8-2,2.7-3c-0.9-0.9-1.6-1.7-2.4-2.6
	c-0.2-0.2-0.4-0.5-0.4-0.8c0.1-0.2,0.2-0.3,0.4-0.5c0.9-0.9,1.8-1.6,2.7-2.4c0.2-0.2,0.4-0.3,0.6-0.4c0.3,0,0.7,0.2,0.9,0.5l1.6,1.6
	c0.2,0,0.3,0.2,0.5,0.2c0.2,0,0.4-0.1,0.6-0.2c0.8-0.7,1.4-1.2,2.2-1.8c0.2-0.1,0.4-0.3,0.6-0.3c0.3,0,0.5,0.2,0.7,0.4
	c0.8,0.6,1.5,1.1,2.3,1.8c0.1,0.1,0.3,0.2,0.3,0.4c0.2,0.5-0.4,0.9-0.9,0.7c-0.4-0.2-0.7-0.5-1-0.9c-0.3-0.3-0.5-0.8-0.9-0.9
	c-0.7-0.4-1.4,0.2-1.9,0.8c-0.4,0.6-1,1-1.7,1.1c-1.3,0.2-2-1.5-3.2-2.1c-0.8,0.7-1.5,1.3-2.3,2.1l2.3,2.3c0.2,0.3,0.4,0.5,0.4,0.8
	c0,0.3-0.2,0.6-0.5,0.8l-2.6,2.9c0.9,0.8,1.7,1.5,2.5,2.2c0.4,0.3,0.6,0.5,0.6,0.9c0,0.2-0.2,0.4-0.4,0.6c-0.8,0.9-1.6,1.9-2.5,2.9
	c0.9,0.4,1.7,1,2.5,1.3c0.2,0.1,0.4,0.2,0.4,0.4c0.2,0.2,0,0.4-0.1,0.6c-0.5,1-1,1.8-1.4,2.7l2-1.1c0.2-0.1,0.4-0.2,0.7-0.2
	c0.2,0,0.4,0.1,0.6,0.3c1,0.8,1.9,1.5,2.8,2.3c0.9-1.1,2-2.1,3.2-3c0.4-0.4,1-0.6,1.2-0.1c0,0.3-0.2,0.5-0.4,0.7
	c-1,1-2.1,2.1-3.2,3.1c-0.2,0.2-0.4,0.4-0.7,0.5c-0.2,0-0.4-0.1-0.6-0.3c-1.1-0.6-2.1-1.4-2.9-2.3c-1,0.6-1.9,1-2.9,1.5
	c0.4,1.1,0.9,2.1,1.5,3.2c0,0.2,0.2,0.5,0.1,0.8c-0.1,0.2-0.3,0.4-0.5,0.5l-2.3,2.3c-0.2,0.2-0.3,0.4-0.4,0.6c0,0.2,0.1,0.4,0.2,0.6
	c0.6,0.9,1.2,1.6,2,2.3c0.3,0.3,0.6,0.6,0.5,1c0,0.2-0.1,0.4-0.3,0.5c-0.9,0.9-1.7,1.6-2.6,2.5c0.6,0.6,1.2,1.2,1.7,1.7
	c0.2,0.2,0.4,0.3,0.4,0.6s-0.1,0.6-0.2,0.9c-0.5,0.7-1,1.4-1.3,2.1c0.8,0.6,1.5,1.2,2.2,1.9c0.7-0.8,1.1-1.4,1.7-2.1
	c0.3-0.3,0.5-0.6,0.9-0.6c0.3,0,0.5,0.2,0.7,0.4c0.6,0.6,1,1.2,1.6,1.7c1-1,2.1-1.8,3.1-2.8c0.2-0.2,0.4-0.3,0.6-0.4
	c0.3,0,0.5,0.2,0.7,0.4c0.6,0.3,2.4,1.6,1.8,2.4c-0.8,1-2.1-1-2.3-1.5c-1.2,1-2.2,1.9-3.3,3c-0.2,0.1-0.3,0.3-0.5,0.3
	c-0.3,0-0.6-0.2-0.8-0.5c-0.6-0.5-1.1-1.1-1.5-1.7c-0.5,0.4-0.9,1-1.2,1.5c-0.3,0.6-0.9,1-1.6,0.9c-0.3,0-0.5-0.2-0.8-0.5
	c-0.7-0.6-1.3-1.2-2.1-1.8c-0.1-0.1-0.2-0.3-0.3-0.5c-0.1-0.3,0.1-0.5,0.3-0.7c0.3-0.6,0.7-1.2,1-1.7c0.1-0.1,0.2-0.3,0.2-0.5
	c-0.1-0.1-0.1-0.3-0.3-0.4c-0.4-0.5-0.9-0.9-1.3-1.2c-0.2-0.3-0.4-0.6-0.4-1c0-0.2,0.2-0.4,0.4-0.7c0.8-0.7,1.5-1.5,2.3-2.3
	C641.5,43.1,641.3,43,641.2,42.9z M637.8,56.3c5.8,2,12,0.4,17.9-0.7c-0.2-3-0.6-6-0.7-9c-3,0.5-5.9,1-8.9,1.2
	c-0.4-3.7-0.5-7.5-0.6-11.3c3.1-0.4,6.1-0.8,9-1.2c-0.2-3-0.3-6-0.5-9c-2.8,0.2-5.7,0.5-8.5,1c0-3.8,0-7.5-0.1-11.3
	c3.3,0.1,6.7,0.6,10,0c0.2-2.7,0.2-5.5,0.3-8.3c-6.4-0.4-12.8-0.4-19.2-0.1c0,7.5-0.6,14.9-0.2,22.5C636.6,38.9,637,47.7,637.8,56.3
	z"/>
<path class="st0" d="M687.8,45.2c0.8-5.3-1.1-10.6-5-14.2c-3.2-2.6-7.5-2.5-11.3-3.7c-2.3-0.7-3.2-3.1-3.6-5.2
	c-0.4-2.4,1.1-5.3,3.8-5.3c1.7,0.5,2.2,2.5,2.8,3.9c3-1,6-1.8,8.9-2.9c-1-3.7-3.2-7.4-6.7-9.3c-4.5-2.5-10.4-1.1-13.9,2.5
	c-6.8,6.4-5,18.5,2.6,23.5c3.2,2.1,7.1,2.5,10.7,3.4c1.6,0.3,2.1,2.1,2.4,3.5c0.8,3.1-1.5,5.8-4.1,7.4c-1.2,0.6-3,1.2-4.3,0.2
	c-1.5-1.2-2.1-3.2-2.8-5c-2.9,0.7-5.6,1.3-8.5,2.1c1.2,5.3,4.6,10.6,10.1,12C677.3,60.1,686.1,53.5,687.8,45.2z"/>
<path class="st0" d="M29.2,49.8v2.8H0V10.2h28.3V13H3.1v16.7h22.6v2.7H3.1v17.4H29.2z"/>
<path class="st0" d="M40.5,10.2h16.8c4.1-0.1,8.1,0.9,11.7,2.8c3.3,1.7,6.1,4.3,8,7.5c1.9,3.3,2.9,7.1,2.8,10.9
	c0.1,3.8-0.9,7.6-2.8,10.9c-1.9,3.2-4.7,5.8-8,7.5c-3.6,1.9-7.6,2.8-11.7,2.7H40.5V10.2z M57,49.8c3.6,0.1,7.1-0.7,10.4-2.3
	c2.9-1.5,5.3-3.7,6.9-6.5c1.7-2.9,2.5-6.2,2.4-9.6c0.1-3.4-0.8-6.7-2.4-9.6c-1.6-2.8-4-5.1-6.9-6.5c-3.2-1.6-6.8-2.4-10.4-2.4H43.6
	v36.8H57z"/>
<path class="st0" d="M90.6,10.2h3.1v42.4h-3.1V10.2z"/>
<path class="st0" d="M115.1,50.1c-3.3-1.8-6-4.5-7.9-7.7c-1.9-3.3-2.9-7.1-2.9-11c-0.1-3.9,0.9-7.7,2.9-11c1.9-3.2,4.6-5.9,7.9-7.7
	c3.4-1.9,7.3-2.8,11.2-2.8c2.9,0,5.8,0.5,8.5,1.5c2.5,0.9,4.8,2.4,6.6,4.4l-1.9,2c-3.5-3.4-8.2-5.2-13-5c-3.4,0-6.7,0.8-9.7,2.4
	c-2.8,1.6-5.2,3.9-6.8,6.7c-1.7,2.9-2.5,6.2-2.5,9.5c0,3.3,0.8,6.6,2.5,9.5c1.6,2.8,4,5.1,6.8,6.7c3,1.6,6.3,2.5,9.7,2.4
	c4.8,0.1,9.5-1.7,13-5.1l1.9,2c-1.8,2-4.1,3.5-6.6,4.4c-2.7,1-5.6,1.5-8.4,1.5C122.4,53,118.5,52,115.1,50.1z M119.6,64.3l0.8-1.7
	c1.1,0.9,2.5,1.3,3.9,1.3c1,0,2.1-0.3,2.9-0.8c0.7-0.6,1.1-1.4,1.1-2.4c0-0.9-0.3-1.7-1-2.2c-0.9-0.6-1.9-0.9-3-0.8h-1.2l1.4-5.3h2
	l-1,3.6c1.4,0,2.7,0.6,3.8,1.5c1.8,1.9,1.8,4.8-0.1,6.7c-0.1,0.1-0.2,0.2-0.4,0.3c-1.3,1-2.9,1.4-4.6,1.4
	C122.7,65.8,121,65.3,119.6,64.3z"/>
<path class="st0" d="M176.9,40.7h-24.6l-5.4,11.9h-3.3L163,10.2h3.1l19.5,42.4h-3.3L176.9,40.7z M175.7,38.1l-11.1-24.5l-11.1,24.5
	L175.7,38.1z M166.2,5.7c-0.8-0.5-1.5-1.1-2.2-1.7c-0.5-0.5-1.1-1-1.7-1.4c-1.2-0.8-2.8-0.5-3.7,0.6c-0.6,0.8-1,1.8-1,2.9h-2
	c0-1.6,0.5-3.1,1.5-4.4c0.9-1.1,2.2-1.7,3.6-1.7c0.8,0,1.7,0.2,2.4,0.6c0.8,0.5,1.5,1.1,2.2,1.7c0.6,0.5,1.2,1,1.8,1.4
	c0.4,0.3,1,0.5,1.5,0.5c0.9,0,1.7-0.3,2.2-1c0.6-0.8,1-1.8,1-2.8h2c0,1.6-0.5,3.1-1.5,4.3c-0.9,1.1-2.2,1.7-3.6,1.6
	C167.8,6.3,167,6.1,166.2,5.7z"/>
<path class="st0" d="M199.4,50.1c-3.3-1.8-6-4.5-7.9-7.7c-1.9-3.3-2.9-7.1-2.9-11c-0.1-3.9,0.9-7.7,2.9-11c1.9-3.2,4.6-5.9,7.9-7.7
	c7-3.7,15.5-3.7,22.5,0c3.3,1.8,6,4.5,7.9,7.7c1.9,3.3,2.9,7.1,2.9,11c0,3.9-0.9,7.7-2.9,11c-1.9,3.3-4.6,6-7.9,7.8
	C215,53.9,206.5,53.9,199.4,50.1L199.4,50.1z M220.3,47.7c2.8-1.6,5.2-3.9,6.8-6.7c1.7-2.9,2.5-6.2,2.5-9.5c0-3.3-0.8-6.6-2.5-9.5
	c-1.6-2.8-4-5.1-6.8-6.7c-6-3.2-13.3-3.2-19.3,0c-2.8,1.6-5.2,3.9-6.8,6.7c-1.7,2.9-2.5,6.2-2.5,9.5c0,3.4,0.8,6.7,2.5,9.6
	c1.6,2.8,4,5.1,6.8,6.7C207.1,50.9,214.3,50.9,220.3,47.7L220.3,47.7z"/>
<g>
	<path class="st0" d="M26.3,114.7c-1.6,0.2-3.2,0.4-4.8,0.4c-1.7,0.1-3.3,0-4.9-0.2c-1.6-0.2-3.2-0.5-4.7-1
		c-1.5-0.5-2.9-1.3-4.3-2.3c-2.6-2.4-4.5-5.3-5.8-8.7C0.6,99.6,0,96.1,0,92.7c0.1-3.7,1-7.2,2.6-10.6c1.6-3.4,3.8-6.3,6.7-8.7
		c2.3-2,5-3.6,7.9-4.6c3-1,6-1.5,9.1-1.4v13.1c-1.7,0-3.3,0.2-4.9,0.7c-1.6,0.5-3,1.4-4.1,2.6c-1.2,1.1-2.2,2.4-2.8,3.9
		c-0.7,1.5-1.1,3.1-1.2,4.7c-0.1,1.6,0.1,3.2,0.5,4.8c0.5,1.6,1.2,3,2.3,4.2c1.4,0.5,2.9,0.8,4.4,0.7c1.5-0.1,3-0.3,4.4-0.9
		c0.3,2.3,0.6,4.5,0.9,6.7C26,110.2,26.2,112.4,26.3,114.7z"/>
	<path class="st0" d="M28.1,71.3c0.1-0.6,0.3-1.2,0.7-1.7c0.3-0.5,0.8-0.8,1.5-1c2.1-0.3,4.2-0.7,6.3-1c2.1-0.3,4.2-0.2,6.3,0.2
		c1,0.2,2.1,0.5,3.1,1c1,0.5,1.9,1.1,2.7,1.8c0.8,0.7,1.4,1.6,2,2.6c0.5,1,0.8,2.1,0.8,3.2c0.3,2.6-0.1,5-1.5,7.3
		c-1.3,2.2-3.1,4-5.3,5.4c1,2.7,2.1,5.3,3.1,8c1,2.6,2,5.3,2.8,8.1c0.3,1.2,0.8,2.3,1.4,3.4c0.6,1.1,0.9,2.2,1,3.4
		c-1.2,0.5-2.4,0.9-3.7,1.3c-1.2,0.4-2.4,0.9-3.7,1.5c-1.6-3.7-3-7.5-4.2-11.3c-1.2-3.8-2.6-7.6-4.3-11.2c-0.1-0.1-0.2-0.3-0.4-0.4
		c-0.1-0.2-0.3-0.3-0.4-0.4c-0.1,3.9-0.1,7.8-0.1,11.6c0.1,3.9,0.1,7.8,0.2,11.7c-1.3,0-2.6,0-3.8,0c-1.3,0-2.6-0.1-3.9-0.1
		c-0.2-3.5-0.4-7.1-0.4-10.7c0-3.6,0-7.2,0-10.8c0-3.6,0-7.2,0-10.8C28.3,78.5,28.2,74.9,28.1,71.3z M29.7,77.8
		c0,0.3,0.2,0.4,0.5,0.4c0.3,0,0.5-0.1,0.5-0.4c0-0.3-0.2-0.5-0.5-0.5C29.9,77.2,29.7,77.4,29.7,77.8z M30.6,102
		c-0.3,0-0.5,0.1-0.5,0.4c0,0.3,0.2,0.4,0.5,0.4s0.5-0.1,0.5-0.4C31.1,102.1,30.9,102,30.6,102z M30.1,109c0,0.3,0.2,0.5,0.5,0.5
		s0.5-0.2,0.5-0.5c0-0.3-0.2-0.5-0.5-0.5S30.1,108.6,30.1,109z M30.8,88.2c-0.1,0-0.2,0.1-0.3,0.2c-0.1,0.1-0.2,0.2-0.2,0.3
		c0,0.2,0.1,0.3,0.2,0.4c0.1,0.1,0.2,0.1,0.3,0.1c0.3,0,0.5-0.2,0.5-0.5C31.3,88.4,31.1,88.2,30.8,88.2z M30.3,84.9
		c0,0.3,0.2,0.5,0.5,0.5c0.3,0,0.4-0.2,0.4-0.5c0-0.3-0.1-0.4-0.4-0.4C30.5,84.5,30.3,84.6,30.3,84.9z M30.9,74.2
		c-0.3,0-0.5,0.1-0.5,0.4c0,0.3,0.2,0.5,0.5,0.5s0.5-0.2,0.5-0.5C31.5,74.3,31.3,74.2,30.9,74.2z M31.2,82.1c0.3,0,0.5-0.2,0.5-0.5
		c0-0.3-0.2-0.5-0.5-0.5c-0.3,0-0.5,0.2-0.5,0.5C30.7,81.9,30.8,82.1,31.2,82.1z M31.2,112.8c0.3,0,0.5-0.2,0.5-0.5
		c0-0.3-0.2-0.5-0.5-0.5c-0.3,0-0.5,0.2-0.5,0.5C30.7,112.6,30.8,112.8,31.2,112.8z M31.3,97.6c0.3,0,0.4-0.1,0.4-0.4
		c0-0.3-0.1-0.4-0.4-0.4c-0.3,0-0.5,0.1-0.5,0.4C30.8,97.5,30.9,97.6,31.3,97.6z M31.7,71.1c-0.3,0-0.5,0.1-0.5,0.4
		c0,0.3,0.2,0.4,0.5,0.4c0.3,0,0.4-0.1,0.4-0.4C32.1,71.3,32,71.1,31.7,71.1z M31.6,92.2c-0.1,0-0.2,0.1-0.3,0.2
		c-0.1,0.1-0.1,0.2-0.1,0.3c0,0.3,0.1,0.5,0.4,0.5c0.3,0,0.5-0.2,0.5-0.5c0-0.1,0-0.2-0.1-0.3C31.9,92.3,31.8,92.2,31.6,92.2z
		 M32.9,105.5c0-0.3-0.2-0.5-0.5-0.5c-0.3,0-0.4,0.2-0.4,0.5c0,0.3,0.1,0.5,0.4,0.5C32.8,106,32.9,105.8,32.9,105.5z M33.4,79.7
		c-0.1,0-0.2,0.1-0.3,0.2c-0.1,0.1-0.1,0.2-0.1,0.3c0,0.3,0.1,0.5,0.4,0.5c0.3,0,0.5-0.2,0.5-0.5c0-0.1,0-0.2-0.1-0.3
		C33.7,79.7,33.5,79.7,33.4,79.7z M34.2,85.5c0-0.3-0.1-0.4-0.4-0.4c-0.3,0-0.5,0.1-0.5,0.4c0,0.3,0.2,0.5,0.5,0.5
		C34,86,34.2,85.9,34.2,85.5z M33.7,99.4c0.3,0,0.5-0.1,0.5-0.4c0-0.3-0.2-0.5-0.5-0.5c-0.3,0-0.5,0.2-0.5,0.5
		C33.2,99.2,33.4,99.4,33.7,99.4z M34,94.8c0,0.3,0.2,0.4,0.5,0.4c0.3,0,0.4-0.1,0.4-0.4c0-0.3-0.1-0.5-0.4-0.5
		C34.2,94.3,34,94.5,34,94.8z M34.7,77.6c-0.3,0-0.5,0.2-0.5,0.5c0,0.3,0.2,0.4,0.5,0.4c0.3,0,0.5-0.1,0.5-0.4
		C35.2,77.8,35,77.6,34.7,77.6z M34.2,108.7c0,0.3,0.2,0.5,0.5,0.5s0.5-0.2,0.5-0.5c0-0.3-0.2-0.4-0.5-0.4S34.2,108.4,34.2,108.7z
		 M34.8,112.8c0.3,0,0.5-0.2,0.5-0.5c0-0.3-0.2-0.5-0.5-0.5c-0.1,0-0.2,0-0.3,0.1c-0.1,0.1-0.2,0.2-0.2,0.4c0,0.1,0.1,0.2,0.2,0.3
		C34.5,112.7,34.6,112.8,34.8,112.8z M34.9,104.2c0.3,0,0.5-0.1,0.5-0.4c0-0.3-0.2-0.5-0.5-0.5c-0.3,0-0.4,0.2-0.4,0.5
		C34.4,104,34.6,104.2,34.9,104.2z M35.4,73.1c-0.3,0-0.5,0.2-0.5,0.5c0,0.3,0.2,0.4,0.5,0.4c0.3,0,0.4-0.1,0.4-0.4
		C35.8,73.3,35.7,73.1,35.4,73.1z M35.6,90.1c0.3,0,0.4-0.2,0.4-0.5c0-0.3-0.1-0.5-0.4-0.5c-0.3,0-0.5,0.2-0.5,0.5
		C35.1,90,35.3,90.1,35.6,90.1z M36.3,82.4c-0.3,0-0.5,0.1-0.5,0.4c0,0.3,0.2,0.5,0.5,0.5c0.3,0,0.4-0.2,0.4-0.5
		C36.8,82.5,36.6,82.4,36.3,82.4z M36.5,69.4c-0.3,0-0.5,0.2-0.5,0.5c0,0.3,0.2,0.5,0.5,0.5c0.3,0,0.4-0.2,0.4-0.5
		C36.9,69.6,36.8,69.4,36.5,69.4z M38.2,76c-0.1,0-0.2,0.1-0.3,0.2c-0.1,0.1-0.2,0.2-0.2,0.3c0,0.1,0.1,0.2,0.2,0.3
		c0.1,0.1,0.2,0.2,0.3,0.2c0.3,0,0.5-0.2,0.5-0.5C38.8,76.2,38.6,76,38.2,76z M39.3,86.6c-0.3,0-0.4,0.2-0.4,0.5
		c0,0.1,0,0.2,0.1,0.3c0.1,0.1,0.2,0.2,0.3,0.2c0.2,0,0.3-0.1,0.4-0.2c0.1-0.1,0.1-0.2,0.1-0.3C39.8,86.8,39.6,86.6,39.3,86.6z
		 M40.2,73.1c-0.3,0-0.5,0.2-0.5,0.5c0,0.3,0.2,0.4,0.5,0.4c0.3,0,0.4-0.1,0.4-0.4C40.6,73.3,40.5,73.1,40.2,73.1z M40.8,69.8
		c-0.3,0-0.4,0.1-0.4,0.4c0,0.3,0.1,0.5,0.4,0.5c0.3,0,0.5-0.2,0.5-0.5C41.3,70,41.1,69.8,40.8,69.8z M40.3,91.2
		c0,0.3,0.2,0.5,0.5,0.5s0.5-0.2,0.5-0.5c0-0.3-0.2-0.5-0.5-0.5S40.3,90.8,40.3,91.2z M41,96.9c0.3,0,0.5-0.2,0.5-0.5
		c0-0.3-0.2-0.5-0.5-0.5c-0.3,0-0.5,0.2-0.5,0.5C40.4,96.8,40.6,96.9,41,96.9z M41.6,79.3c0-0.3-0.2-0.5-0.5-0.5s-0.5,0.2-0.5,0.5
		c0,0.1,0.1,0.2,0.2,0.3c0.1,0.1,0.2,0.2,0.3,0.2c0.1,0,0.2-0.1,0.3-0.2C41.6,79.6,41.6,79.4,41.6,79.3z M42,83.2
		c0-0.3-0.2-0.5-0.5-0.5c-0.3,0-0.4,0.2-0.4,0.5c0,0.3,0.1,0.5,0.4,0.5C41.8,83.7,42,83.5,42,83.2z M42.3,98.3
		c-0.3,0-0.4,0.1-0.4,0.4c0,0.3,0.1,0.4,0.4,0.4c0.3,0,0.5-0.1,0.5-0.4C42.9,98.5,42.7,98.3,42.3,98.3z M42.8,87.6
		c-0.3,0-0.5,0.1-0.5,0.4c0,0.3,0.2,0.5,0.5,0.5c0.3,0,0.4-0.2,0.4-0.5C43.2,87.7,43.1,87.6,42.8,87.6z M42.4,94.7
		c0,0.3,0.2,0.5,0.5,0.5s0.5-0.2,0.5-0.5c0-0.3-0.2-0.4-0.5-0.4S42.4,94.4,42.4,94.7z M43.8,91.3c0-0.3-0.2-0.4-0.5-0.4
		c-0.3,0-0.4,0.1-0.4,0.4c0,0.3,0.1,0.5,0.4,0.5C43.7,91.8,43.8,91.6,43.8,91.3z M43.5,102.8c0.3,0,0.5-0.2,0.5-0.5
		c0-0.3-0.2-0.4-0.5-0.4S43,102,43,102.2C43,102.6,43.1,102.8,43.5,102.8z M44.1,75.5c-0.3,0-0.4,0.2-0.4,0.5c0,0.3,0.1,0.4,0.4,0.4
		c0.3,0,0.4-0.1,0.4-0.4C44.5,75.7,44.4,75.5,44.1,75.5z M44.9,100.1c-0.3,0-0.5,0.1-0.5,0.4c0,0.3,0.2,0.5,0.5,0.5s0.5-0.2,0.5-0.5
		C45.4,100.2,45.2,100.1,44.9,100.1z M44.8,106.2c0.3,0,0.5-0.1,0.5-0.4c0-0.3-0.2-0.5-0.5-0.5c-0.3,0-0.4,0.2-0.4,0.5
		C44.3,106.1,44.5,106.2,44.8,106.2z M45.1,85.1c-0.3,0-0.4,0.2-0.4,0.5c0,0.3,0.1,0.4,0.4,0.4c0.3,0,0.5-0.1,0.5-0.4
		C45.7,85.3,45.5,85.1,45.1,85.1z M45.6,94.1c-0.1,0-0.2,0.1-0.3,0.2c-0.1,0.1-0.2,0.2-0.2,0.3c0,0.1,0.1,0.2,0.2,0.3
		c0.1,0.1,0.2,0.2,0.3,0.2c0.3,0,0.5-0.2,0.5-0.5C46.1,94.3,45.9,94.1,45.6,94.1z M45.8,71.6c-0.3,0-0.4,0.1-0.4,0.4
		c0,0.3,0.1,0.5,0.4,0.5c0.3,0,0.5-0.2,0.5-0.5C46.4,71.7,46.2,71.6,45.8,71.6z M46.5,81c0-0.3-0.2-0.5-0.5-0.5
		c-0.3,0-0.4,0.2-0.4,0.5c0,0.3,0.1,0.4,0.4,0.4C46.4,81.4,46.5,81.3,46.5,81z M46.7,97.3c-0.3,0-0.4,0.2-0.4,0.5
		c0,0.3,0.1,0.5,0.4,0.5c0.3,0,0.5-0.2,0.5-0.5C47.2,97.4,47,97.3,46.7,97.3z M46.8,110.7c0.3,0,0.5-0.1,0.5-0.4
		c0-0.3-0.2-0.5-0.5-0.5c-0.3,0-0.4,0.2-0.4,0.5C46.4,110.5,46.5,110.7,46.8,110.7z M47.7,102.7c0-0.3-0.1-0.5-0.4-0.5
		c-0.3,0-0.5,0.2-0.5,0.5c0,0.3,0.2,0.5,0.5,0.5C47.6,103.2,47.7,103,47.7,102.7z M48.4,107.6c0-0.3-0.1-0.4-0.4-0.4
		c-0.3,0-0.5,0.1-0.5,0.4c0,0.3,0.2,0.5,0.5,0.5C48.2,108.1,48.4,107.9,48.4,107.6z M48.4,75.2c-0.3,0-0.5,0.1-0.5,0.4
		c0,0.3,0.2,0.5,0.5,0.5s0.5-0.2,0.5-0.5C48.9,75.4,48.7,75.2,48.4,75.2z M49.2,104.7c-0.3,0-0.5,0.1-0.5,0.4c0,0.3,0.2,0.5,0.5,0.5
		c0.3,0,0.4-0.2,0.4-0.5C49.7,104.8,49.5,104.7,49.2,104.7z M49.6,78.6c-0.3,0-0.5,0.1-0.5,0.4c0,0.3,0.2,0.5,0.5,0.5
		s0.5-0.2,0.5-0.5C50.1,78.8,49.9,78.6,49.6,78.6z M51.6,110.3c-0.3,0-0.5,0.2-0.5,0.5c0,0.3,0.2,0.4,0.5,0.4c0.3,0,0.4-0.1,0.4-0.4
		C52,110.5,51.9,110.3,51.6,110.3z"/>
	<path class="st0" d="M61.1,72.7c-1,0.1-2.1,0.2-3.1,0.3c-1,0.1-2.1,0.2-3.1,0.3c-0.3-1.2-0.6-2.4-0.9-3.7c-0.2-1.2-0.6-2.4-1-3.6
		c0.3-0.1,0.6-0.3,0.9-0.4c0.3-0.2,0.7-0.3,1.2-0.3c3.1-0.5,6.3-0.7,9.5-0.7c3.2,0,6.4,0,9.6,0.1c0,1.3,0,2.5-0.1,3.7
		C74,69.7,74,71,74,72.3c-1.7,0.2-3.3,0.3-4.9,0.3c-0.2,5.8-0.4,11.5-0.7,17.2c-0.3,5.7-0.6,11.4-0.8,17.1c0.9-0.2,1.9-0.4,2.8-0.5
		c0.9-0.1,1.9-0.2,2.9-0.2c0.2,1.2,0.3,2.5,0.5,3.7c0.1,1.3,0.2,2.5,0.2,3.7c-2.7,0.7-5.5,1.2-8.2,1.6c-2.7,0.4-5.5,0.9-8.2,1.7
		c-0.4-1.2-0.8-2.3-1.3-3.5c-0.5-1.2-1-2.3-1.7-3.3c0.6-0.5,1.4-0.9,2.2-1.1c0.8-0.2,1.7-0.4,2.5-0.6c0.3-2.1,0.5-4.3,0.5-6.4
		c0.1-2.1,0.1-4.3,0.3-6.4c0.2-3.8,0.3-7.6,0.5-11.4C60.8,80.3,61,76.5,61.1,72.7z"/>
	<path class="st0" d="M85.2,107.6c-0.5,1.3-0.9,2.6-1.3,3.8c-0.4,1.3-1,2.4-2,3.4c-1-0.6-2.1-1.3-3.2-2c-1.1-0.7-2.1-1.4-3.2-2.1
		c1.5-4,2.9-8.1,4.3-12.2c1.4-4.1,2.8-8.2,4.2-12.3c1-2.8,2-5.5,3-8.2c1-2.7,2-5.4,3-8.2c1.7,0,3.4,0,5.1-0.1
		c1.7-0.1,3.4-0.1,5.1-0.2c1.7,3.8,3.3,7.7,4.9,11.6c1.6,3.9,3.2,7.8,4.9,11.6c1.2,2.7,2.3,5.3,3.5,7.9c1.2,2.6,2.3,5.3,3.4,7.9
		c-1.2,0.6-2.3,1.3-3.4,2c-1.1,0.7-2.2,1.4-3.4,2.1c-0.8-1.9-1.6-3.7-2.4-5.5c-0.8-1.8-1.6-3.7-2.4-5.5c-3.1-0.2-6.1-0.2-9.1,0.1
		c-3,0.3-6,0.3-9,0c-0.3,1-0.7,2-1.1,3C85.8,105.7,85.5,106.7,85.2,107.6z M95.5,78.5c-1,2.6-1.9,5.2-2.9,7.7
		c-0.9,2.5-1.8,5.1-2.7,7.7c2,0,4-0.1,6-0.2c1.9-0.1,3.9-0.2,6-0.2c-1.1-2.6-2.2-5.1-3.2-7.6C97.7,83.5,96.6,81,95.5,78.5z"/>
	<path class="st0" d="M110.5,68c0.8-0.3,1.6-0.5,2.4-0.4c0.8,0.1,1.6,0.2,2.4,0.2c2.6-0.2,5.2-0.3,7.8-0.3c2.6,0,5.2,0,7.8,0
		c2.8,0,5.6-0.1,8.3-0.4c2.8-0.3,5.5-0.2,8.3,0.1c-0.1,2.1-0.2,4.2-0.3,6.3c-0.1,2.1-0.1,4.2-0.1,6.3c-2.2,0-4.4,0.1-6.5,0.2
		c-2.1,0.1-4.3,0.2-6.4,0.3c0.1,2.4,0.1,4.9,0.1,7.3c-0.1,2.4-0.1,4.9-0.1,7.3c0,3.5,0.1,6.9,0.4,10.3c0.3,3.4,0.3,6.8,0.2,10.2
		c-2,0.1-4.1,0.2-6.2,0.2c-2.1,0-4.2,0-6.2,0c-0.3-4.2-0.6-8.4-0.8-12.6c-0.2-4.2-0.3-8.5-0.2-12.7c0.1-1.6,0.1-3.3,0.1-4.9
		c0-1.6-0.1-3.3-0.2-4.9c-1.9-0.1-3.8,0.1-5.8,0.4c-1.9,0.3-3.8,0.2-5.7-0.2c0-2.1,0-4.3,0.1-6.4C110.3,72.3,110.4,70.1,110.5,68z
		 M116.6,73.3c-0.1-0.1-0.1-0.1-0.2-0.1c-0.1,0-0.2,0-0.5,0c-0.1,0-0.2,0-0.3,0c-0.1,0-0.2,0-0.3,0c-0.1-0.2-0.1-0.5,0-0.7
		c0-0.2,0-0.4-0.2-0.5c-0.1-0.1-0.3-0.1-0.4-0.1c-0.2,0.1-0.3,0.1-0.3,0.3c-0.1,0.2-0.2,0.4-0.1,0.6c0,0.2,0.1,0.4,0.1,0.6
		c-0.3,0.1-0.5,0.1-0.7,0c-0.2,0-0.4,0-0.5,0.2c-0.2,0.2-0.2,0.5,0,0.7c0.2,0.1,0.4,0.1,0.6,0.1c0.2-0.1,0.4-0.1,0.6-0.1V75
		c0,0.2,0.1,0.4,0.3,0.5c0.1,0.1,0.2,0.1,0.4,0.1c0.1-0.1,0.2-0.1,0.3-0.3c0.1-0.2,0.1-0.4,0-0.6c0-0.2-0.1-0.4-0.1-0.6
		c0.1,0,0.2,0,0.4,0c0.2,0,0.4,0,0.7-0.1c0.2-0.1,0.3-0.2,0.4-0.3C116.8,73.6,116.8,73.5,116.6,73.3z M120,73.3
		c-0.1,0.2,0,0.4,0.2,0.6c0.1,0.1,0.3,0.1,0.4,0.1c0.1-0.1,0.3-0.1,0.7-0.1v1.1c0,0.3,0.2,0.4,0.5,0.4c0.3,0,0.5-0.1,0.5-0.4v-1.3
		h0.1c0.1,0,0.1,0,0.1,0c0,0,0,0,0.1,0c0.2,0,0.3-0.1,0.3-0.2c0.1-0.2,0.1-0.3,0.1-0.4c-0.1-0.2-0.3-0.3-0.6-0.3h-0.1
		c-0.1-0.1-0.1-0.3-0.1-0.7c0-0.3-0.2-0.5-0.5-0.5c-0.1,0-0.2,0.1-0.3,0.2c-0.1,0.1-0.1,0.2-0.1,0.3c0,0.4,0,0.7,0.1,0.9
		c-0.5,0.1-0.8,0.2-1,0.2C120.2,73.1,120,73.1,120,73.3z M126.2,91.5c-0.3,0-0.5,0.2-0.5,0.5c0,0.3,0.2,0.5,0.5,0.5
		c0.2,0,0.5,0,0.7,0c0.2,0,0.5,0,0.7,0v1.2c0,0.3,0.2,0.4,0.5,0.4c0.3,0,0.4-0.1,0.4-0.4v-1.3h0.8h0.1c0.3,0.1,0.6,0,0.6-0.3
		c0.1-0.3,0-0.5-0.3-0.6h-0.6h-0.5v-0.5c0-0.3-0.1-0.4-0.4-0.4c-0.3,0-0.4,0.1-0.4,0.4v0.6H126.2z M129.6,104.3
		c0.3,0,0.4-0.1,0.4-0.4c0-0.3-0.1-0.5-0.4-0.5h-0.8c0-0.2-0.1-0.4-0.2-0.4c-0.2-0.2-0.5-0.2-0.7,0c-0.1,0.2-0.1,0.4-0.1,0.5
		c-0.2,0.1-0.5,0.1-0.7,0.1c-0.2,0-0.5,0-0.7,0c-0.3,0-0.4,0.2-0.4,0.5c0,0.4,0.1,0.6,0.4,0.4c0.2,0,0.5,0,0.7,0
		c0.2,0,0.5,0,0.7-0.1c0,0.1,0,0.2,0,0.3c0,0.1,0,0.2,0,0.3c0,0.3,0.2,0.4,0.5,0.4c0.3,0,0.4-0.1,0.4-0.4c0-0.3,0-0.6-0.1-0.7
		C129,104.4,129.3,104.3,129.6,104.3z M126.2,73.1c-0.1,0.1-0.1,0.2-0.1,0.3c0.1,0.2,0.3,0.3,0.6,0.3c0.2-0.1,0.5-0.1,0.9-0.1
		c0.1,0,0.1,0,0.1,0c0,0,0.1,0,0.1,0c0,0.4,0,0.7,0.1,1c0,0.2,0,0.3,0.1,0.3c0.1,0.1,0.3,0.2,0.4,0.2c0.1,0,0.2,0,0.3-0.1
		c0.1-0.1,0.1-0.2,0.1-0.4c-0.1-0.2-0.1-0.6-0.1-1c0.1-0.1,0.3-0.1,0.6-0.1c0.1,0,0.1,0,0.2,0c0.1,0,0.1,0,0.3,0
		c0.2,0,0.3,0,0.3-0.1c0.1-0.1,0.2-0.3,0.2-0.4c0-0.3-0.2-0.4-0.5-0.4c-0.2,0.1-0.6,0.1-1,0.1v-0.6c-0.1-0.3-0.3-0.4-0.5-0.4
		c-0.3,0-0.5,0.1-0.5,0.4v0.8c-0.5,0.1-0.9,0.2-1.3,0.2L126.2,73.1z M127.8,97.4c-0.3,0-0.6,0-0.8,0s-0.5,0.1-0.7,0.2
		c-0.1,0.2-0.1,0.4-0.1,0.6c0.1,0.2,0.2,0.3,0.4,0.3c0.5,0,0.9,0,1.2-0.1v1.1c0,0.3,0.2,0.4,0.5,0.4c0.3,0,0.4-0.1,0.4-0.4v-1.2h0.3
		c0.3,0,0.5-0.2,0.5-0.5c0-0.4-0.3-0.6-0.9-0.5v-0.9c0-0.3-0.2-0.5-0.5-0.5c-0.3,0-0.4,0.2-0.4,0.5V97.4z M127.7,79
		c-0.2,0.1-0.3,0.1-0.5,0.1c-0.2,0-0.3,0-0.5,0.1c-0.2,0-0.3,0-0.4,0.1c-0.1,0.1-0.1,0.2-0.1,0.4c0,0.1,0,0.2,0.1,0.3
		c0.1,0,0.1,0,0.2,0c0.1,0,0.1,0,0.3,0c0.2-0.1,0.6-0.1,1.1-0.1v0.7c0,0.3,0.2,0.5,0.5,0.5c0.3,0,0.4-0.2,0.4-0.5v-0.8l0.2-0.1
		c0.3,0.1,0.5,0,0.5-0.4c0-0.3-0.2-0.5-0.5-0.5c-0.1,0-0.2,0-0.2,0.1c0-0.1,0-0.2,0-0.3c0-0.1,0-0.2,0-0.3c0-0.3-0.2-0.5-0.5-0.5
		c-0.3,0-0.4,0.2-0.4,0.5V79z M128.8,86.6h0.8c0.3,0,0.4-0.2,0.4-0.5c0-0.3-0.1-0.5-0.4-0.5h-0.3h-0.4v-0.7c0-0.3-0.2-0.4-0.5-0.4
		s-0.5,0.1-0.5,0.4v0.8c-0.2,0-0.3,0-0.5,0c-0.2,0-0.3,0-0.5,0c-0.2,0-0.3,0-0.4,0.1c-0.1,0.1-0.1,0.2-0.1,0.3c0,0.1,0,0.2,0.1,0.4
		c0.1,0.1,0.2,0.2,0.4,0.1c0.2,0,0.3,0,0.5,0c0.2,0,0.3,0,0.5,0c0,0.1,0,0.2,0,0.3c0,0.1,0,0.2,0,0.3c0,0.3,0.1,0.5,0.4,0.5
		c0.3,0,0.5-0.2,0.5-0.5V86.6z M129.5,110.7c0.1-0.1,0.1-0.3,0.1-0.5c0-0.1-0.1-0.1-0.4-0.3v-0.5c0-0.3-0.2-0.4-0.5-0.4
		c-0.3,0-0.4,0.1-0.4,0.4v0.6c-0.2,0-0.4,0-0.8,0c-0.3,0-0.5,0.2-0.5,0.5c0,0.3,0.1,0.5,0.4,0.5c0.4,0,0.7,0,0.9-0.1v1
		c0,0.3,0.1,0.5,0.4,0.5c0.3,0,0.5-0.2,0.5-0.5v-1.1C129.2,110.9,129.3,110.8,129.5,110.7C129.4,110.8,129.5,110.8,129.5,110.7z
		 M133.8,72.7c-0.1,0.1-0.1,0.2-0.1,0.3c0,0.2,0,0.3,0.1,0.3l0.3,0.2c0.2,0,0.3,0,0.5,0c0.2,0,0.3,0,0.5,0v0.7
		c0,0.3,0.2,0.4,0.5,0.4c0.3,0,0.5-0.1,0.5-0.4v-0.8c0.3,0,0.5-0.2,0.5-0.5c0-0.2-0.2-0.3-0.5-0.4v-0.6c0-0.3-0.2-0.5-0.5-0.5
		c-0.3,0-0.5,0.2-0.5,0.5v0.7c-0.5,0-0.8,0-1,0.1c-0.1,0-0.1,0-0.1,0C134,72.7,133.9,72.7,133.8,72.7z M141.1,72.5
		c-0.1,0.1-0.2,0.2-0.2,0.3c0,0.2,0.1,0.3,0.2,0.3c0,0.1,0.1,0.2,0.3,0.2c0.2-0.1,0.6-0.1,1-0.1v1.1c0.1,0.1,0.1,0.2,0.2,0.3
		c0.1,0.1,0.2,0.2,0.3,0.2c0.1,0,0.2-0.1,0.3-0.2c0.1-0.1,0.2-0.2,0.2-0.3v-1.2c0.3,0,0.5-0.2,0.5-0.5c0-0.1-0.1-0.2-0.2-0.3
		c-0.1-0.1-0.2-0.2-0.3-0.2h-0.1v-0.7c0-0.1,0-0.2-0.1-0.3c-0.1-0.1-0.2-0.2-0.3-0.2c-0.2,0-0.3,0.1-0.4,0.2
		c-0.1,0.1-0.1,0.2-0.1,0.3v0.9h-1C141.3,72.4,141.1,72.4,141.1,72.5z"/>
	<path class="st0" d="M157.1,72.7c-1,0.1-2.1,0.2-3.1,0.3c-1,0.1-2.1,0.2-3.1,0.3c-0.3-1.2-0.6-2.4-0.9-3.7c-0.2-1.2-0.6-2.4-1-3.6
		c0.3-0.1,0.6-0.3,0.9-0.4c0.3-0.2,0.7-0.3,1.2-0.3c3.1-0.5,6.3-0.7,9.5-0.7c3.2,0,6.4,0,9.6,0.1c0,1.3,0,2.5-0.1,3.7
		c-0.1,1.2-0.1,2.5-0.1,3.7c-1.7,0.2-3.3,0.3-4.9,0.3c-0.2,5.8-0.4,11.5-0.7,17.2c-0.3,5.7-0.6,11.4-0.8,17.1
		c0.9-0.2,1.9-0.4,2.8-0.5c0.9-0.1,1.9-0.2,2.9-0.2c0.2,1.2,0.3,2.5,0.5,3.7c0.1,1.3,0.2,2.5,0.2,3.7c-2.7,0.7-5.5,1.2-8.2,1.6
		c-2.7,0.4-5.5,0.9-8.2,1.7c-0.4-1.2-0.8-2.3-1.3-3.5c-0.5-1.2-1-2.3-1.7-3.3c0.6-0.5,1.4-0.9,2.2-1.1c0.8-0.2,1.7-0.4,2.5-0.6
		c0.3-2.1,0.5-4.3,0.5-6.4c0.1-2.1,0.1-4.3,0.3-6.4c0.2-3.8,0.3-7.6,0.5-11.4C156.8,80.3,157,76.5,157.1,72.7z"/>
	<path class="st0" d="M202.2,67.7c0.2-0.3,0.3-0.6,0.5-1c0.1-0.3,0.4-0.4,0.8-0.3c1.2,0.5,2.3,1,3.4,1.5s2.3,1,3.4,1.5
		c-0.9,2.4-1.8,4.7-2.7,7.1c-0.9,2.3-1.7,4.7-2.5,7.1c-1.6,4.9-3.3,9.8-5,14.6c-1.7,4.8-3.5,9.6-5.4,14.5c-1.5,0.2-2.9,0.4-4.3,0.6
		c-1.4,0.2-2.9,0.3-4.4,0.3c-0.1-0.4-0.1-0.8-0.2-1.1c-0.1-0.3-0.2-0.7-0.3-1c-1.9-5.5-3.7-10.9-5.4-16.4
		c-1.8-5.5-3.6-10.9-5.4-16.4c-0.5-1.6-1-3.1-1.5-4.6c-0.5-1.5-0.9-3-1.4-4.6c1.3-0.5,2.6-0.9,3.8-1.3c1.3-0.4,2.6-0.8,3.8-1.3
		c2,5.5,3.9,10.9,5.7,16.5c1.7,5.5,3.5,11.1,5.4,16.6c2-5.4,3.9-10.8,5.6-16.2C198,78.3,200,72.9,202.2,67.7z M176.3,71
		c0-0.2,0-0.4,0.1-0.5c0.3,0.3,0.6,0.5,0.8,0.7c0.2,0.2,0.5,0.4,0.7,0.6c0.1,0.1,0.2,0.1,0.2,0.2c0,0.1,0.1,0.1,0.2,0.1
		c0.1,0.1,0.3,0,0.4-0.1c0.2-0.1,0.2-0.3,0.2-0.5c-0.2-0.2-0.3-0.3-0.3-0.4c-0.3-0.3-0.7-0.6-1-0.8c-0.3-0.2-0.6-0.5-1-0.7
		c-0.2-0.2-0.4-0.3-0.7-0.3c-0.2,0.1-0.3,0.3-0.4,0.7c-0.2,0.7-0.3,1.5-0.3,2.4c-0.1,0.2-0.1,0.4,0,0.6c0,0.2,0.1,0.3,0.3,0.3
		c0.2,0,0.3-0.1,0.4-0.3c0.1-0.1,0.1-0.2,0.1-0.3c0-0.1,0-0.1,0.1-0.3c0-0.2,0-0.5,0-0.7C176.2,71.4,176.3,71.2,176.3,71z
		 M177.8,76.4c0-0.2,0-0.4,0.1-0.6c0.1-0.2,0.1-0.4,0.1-0.6c0.2,0.1,0.3,0.3,0.5,0.4c0.2,0.2,0.3,0.3,0.4,0.4
		c0.1,0.2,0.3,0.3,0.4,0.4c0.2,0.1,0.3,0.1,0.5,0c0.2-0.1,0.2-0.3,0.2-0.5c0-0.1-0.1-0.3-0.3-0.5l-1.2-1.2c-0.2-0.2-0.5-0.3-0.9-0.3
		c-0.2,0.1-0.4,0.3-0.5,0.8c-0.1,0.3-0.2,0.6-0.3,0.9c-0.1,0.3-0.1,0.7-0.1,1v0.4c0.1,0.2,0.2,0.3,0.4,0.3c0.2,0,0.4-0.1,0.4-0.2
		c0.1-0.1,0.1-0.2,0.1-0.4c0-0.1,0-0.1,0-0.2C177.8,76.6,177.8,76.5,177.8,76.4z M179.7,80.2c0.1,0.2,0.2,0.3,0.4,0.5
		c0.1,0.2,0.3,0.3,0.5,0.5c0.1,0.1,0.2,0.1,0.2,0.1c0,0,0.1,0,0.2,0c0.2,0.1,0.3,0.1,0.5,0c0.1-0.1,0.2-0.3,0-0.5
		c0-0.1-0.1-0.2-0.2-0.4c-0.2-0.2-0.4-0.4-0.6-0.7c-0.2-0.2-0.4-0.4-0.6-0.6c-0.5-0.2-0.8-0.3-1-0.2c-0.2,0.1-0.3,0.3-0.3,0.6
		c-0.1,0.3-0.2,0.6-0.3,0.8c-0.1,0.2-0.1,0.5-0.2,0.8c-0.1,0.2-0.1,0.5,0,0.7c0.1,0.1,0.2,0.2,0.3,0.2c0.1,0,0.3,0,0.4-0.1
		c0.1,0,0.1-0.1,0.3-0.4c0.1-0.3,0.1-0.5,0.1-0.7C179.6,80.6,179.6,80.4,179.7,80.2L179.7,80.2z M181.1,85.1
		c0.1-0.1,0.1-0.2,0.1-0.3c0-0.1,0-0.1,0.1-0.2c0.1,0.2,0.3,0.4,0.7,0.8c0.1,0.1,0.2,0.2,0.4,0.3c0.1,0.1,0.2,0,0.4-0.1
		c0.1-0.1,0.2-0.3,0.1-0.4c0-0.1-0.1-0.3-0.2-0.5c-0.2-0.2-0.4-0.4-0.6-0.7c-0.2-0.2-0.4-0.4-0.7-0.6c-0.3-0.2-0.5-0.3-0.6-0.2
		c-0.2,0-0.3,0.1-0.3,0.2c0,0.1-0.1,0.2-0.1,0.3c-0.1,0.3-0.2,0.6-0.2,0.9c0,0.3-0.1,0.6-0.2,0.9c-0.1,0.2-0.2,0.4-0.2,0.5
		c0,0.2,0.1,0.3,0.3,0.4c0.2,0.1,0.3,0,0.5-0.2c0.1-0.1,0.2-0.2,0.2-0.3c0-0.1,0-0.1,0.1-0.3C180.9,85.7,180.9,85.4,181.1,85.1z
		 M182.4,89.4c0.1-0.1,0.1-0.2,0.1-0.3c0-0.1,0-0.2,0.1-0.4c0.2,0.2,0.5,0.6,1,1l0.3,0.3c0.2,0.1,0.4,0,0.6-0.1
		c0.1-0.1,0.2-0.3,0.1-0.5c-0.1-0.1-0.2-0.3-0.3-0.4c-0.2-0.2-0.3-0.3-0.5-0.4c-0.1-0.1-0.3-0.3-0.4-0.4c-0.1-0.1-0.2-0.2-0.3-0.2
		c-0.1,0-0.1-0.1-0.3-0.2c-0.1-0.1-0.3-0.1-0.7-0.1c-0.3,0.2-0.5,0.5-0.6,1c-0.1,0.6-0.2,1-0.3,1.4v0.5c0.1,0.2,0.2,0.3,0.3,0.3
		c0.2,0,0.3,0,0.4-0.1c0.1-0.1,0.2-0.2,0.2-0.5c0.1-0.1,0.2-0.2,0.2-0.4C182.4,89.8,182.4,89.6,182.4,89.4z M183.8,94.1
		c0.1-0.2,0.1-0.3,0.1-0.5c0-0.2,0-0.3,0.1-0.5c0.3,0.2,0.5,0.4,0.7,0.7c0.1,0.2,0.2,0.3,0.3,0.3c0.2,0.1,0.3,0.1,0.5,0
		c0.2-0.1,0.2-0.3,0.2-0.4c0-0.1-0.1-0.2-0.2-0.4c-0.3-0.4-0.7-0.8-1.1-1.1c-0.3-0.3-0.6-0.4-0.9-0.3c-0.2,0.1-0.3,0.2-0.3,0.3
		c0,0.1-0.1,0.2-0.1,0.3c-0.1,0.3-0.2,0.6-0.2,1c0,0.3-0.1,0.7-0.1,1c0,0.1,0,0.2,0,0.3c0,0.1,0,0.2,0,0.2c0.1,0.2,0.2,0.3,0.4,0.3
		c0.2,0,0.3-0.1,0.4-0.2c0.1-0.1,0.1-0.2,0.1-0.3C183.8,94.4,183.8,94.3,183.8,94.1z M185.6,97.8c0.1,0.1,0.2,0.2,0.2,0.3
		c0,0.1,0.1,0.1,0.2,0.2c0.1,0.1,0.2,0.1,0.2,0.2c0,0.1,0.1,0.1,0.2,0.1c0.2,0.1,0.4,0,0.6-0.2c0.1-0.2,0.2-0.3,0-0.5
		c-0.1-0.1-0.2-0.2-0.3-0.2c-0.2-0.2-0.4-0.3-0.6-0.5c-0.2-0.2-0.4-0.3-0.6-0.5c-0.2-0.2-0.4-0.3-0.6-0.3c-0.2,0-0.3,0.1-0.4,0.3
		c-0.1,0.1-0.2,0.2-0.2,0.3c0,0.1,0,0.1-0.1,0.3c-0.1,0.3-0.2,0.6-0.2,0.8c0,0.2-0.1,0.5-0.2,0.7v0.3c0.1,0.2,0.3,0.3,0.4,0.3
		c0.1,0.1,0.3,0,0.4-0.2l0.2-0.3c0.1-0.2,0.1-0.4,0.1-0.6c0-0.2,0.1-0.4,0.1-0.7c0.1,0.1,0.1,0.2,0.2,0.2
		C185.5,97.7,185.5,97.7,185.6,97.8z M188,103l0.2,0.2c0.2,0.1,0.4,0.1,0.6-0.1c0.1-0.2,0.2-0.4,0-0.6c-0.1-0.1-0.2-0.3-0.4-0.5
		c-0.1-0.1-0.3-0.2-0.4-0.3c-0.2-0.1-0.3-0.2-0.4-0.3c-0.3-0.3-0.7-0.5-1-0.3c-0.2,0-0.3,0.1-0.3,0.3c-0.1,0.2-0.2,0.4-0.2,0.5
		c-0.1,0.3-0.1,0.6-0.1,0.8c0,0.2,0,0.5,0,0.8c-0.1,0.3-0.1,0.6,0,0.8c0.3,0.2,0.6,0.2,0.9-0.1c0-0.1,0-0.2,0.1-0.3
		c0-0.3,0-0.6,0-0.8c0-0.2,0.1-0.5,0.1-0.8c0.4,0.2,0.7,0.5,0.8,0.7c0.1,0,0.1,0,0.1,0.1C187.9,103,188,103,188,103z M192.6,109.4
		c0.2-0.1,0.3-0.3,0.3-0.4c0-0.1-0.1-0.3-0.2-0.5c-0.5-0.6-1-1.2-1.5-1.7c-0.3-0.2-0.6-0.3-0.8-0.3c-0.2,0.1-0.4,0.2-0.4,0.3
		c-0.3,0.3-0.5,0.7-0.7,1c-0.2,0.3-0.4,0.7-0.7,1c0,0.1,0,0.2,0,0.3c0,0.1,0,0.1,0,0.3c0,0.4,0.2,0.6,0.6,0.4
		c0.1-0.1,0.3-0.3,0.5-0.6c0.2-0.5,0.6-1,1-1.6c0.2,0.2,0.3,0.4,0.5,0.6c0.2,0.2,0.3,0.5,0.5,0.8c0.1,0.1,0.2,0.2,0.2,0.3
		c0,0.1,0.1,0.1,0.2,0.2C192.3,109.6,192.5,109.6,192.6,109.4z M194.7,105c0.1,0,0.2,0,0.2,0c0,0,0,0,0.1,0c0.2-0.2,0.2-0.5,0.1-0.7
		c-0.1-0.3-0.2-0.7-0.2-1c0-0.3-0.1-0.7-0.1-1c-0.1-0.1-0.2-0.3-0.2-0.4c-0.2-0.2-0.4-0.3-0.4-0.3c-0.2-0.1-0.5,0.1-0.8,0.3
		c-0.3,0.3-0.5,0.6-0.7,0.8c-0.2,0.3-0.4,0.5-0.7,0.8l-0.3,0.3c0,0.3,0,0.5,0.1,0.5c0.1,0.1,0.3,0.2,0.5,0.2
		c0.1-0.1,0.3-0.2,0.4-0.3c0.2-0.2,0.4-0.4,0.6-0.7c0.2-0.2,0.4-0.4,0.5-0.6c0.1,0.3,0.1,0.6,0.2,0.8c0.1,0.2,0.1,0.5,0.2,0.8
		c0,0.3,0.1,0.5,0.3,0.5C194.4,105.1,194.6,105.1,194.7,105z M197.3,98.9c0.2-0.1,0.3-0.3,0.3-0.5c0-0.2,0-0.3-0.1-0.4
		c-0.1-0.3-0.2-0.5-0.3-0.7c-0.1-0.2-0.1-0.4-0.2-0.7c-0.1-0.2-0.2-0.4-0.3-0.6c-0.2-0.2-0.3-0.3-0.5-0.3c-0.1,0-0.3,0.1-0.4,0.3
		c-0.3,0.2-0.6,0.5-0.9,0.7c-0.3,0.2-0.6,0.5-0.9,0.8c-0.2,0.2-0.3,0.4-0.3,0.4c-0.1,0.4,0.1,0.6,0.5,0.6c0.1,0,0.2,0,0.2-0.1
		c0-0.1,0.1-0.1,0.2-0.2c0.3-0.2,0.5-0.4,0.7-0.7c0.2-0.2,0.4-0.4,0.7-0.7c0.1,0.2,0.2,0.3,0.2,0.5c0,0.2,0.1,0.3,0.2,0.5
		c0,0.4,0.1,0.7,0.2,0.8C196.9,98.9,197.1,98.9,197.3,98.9z M200,92.7c0.1-0.2,0.2-0.4,0.2-0.5c-0.1-0.3-0.2-0.6-0.3-0.9
		c-0.1-0.3-0.1-0.6-0.3-0.9c-0.1-0.4-0.3-0.6-0.6-0.7c-0.1-0.1-0.3,0-0.7,0.3c-0.3,0.2-0.7,0.5-1,0.7c-0.3,0.3-0.7,0.5-1,0.8
		l-0.1,0.1c-0.1,0-0.1,0-0.1,0.1c-0.2,0.2-0.2,0.4,0,0.6c0.2,0.1,0.4,0.2,0.5,0.2c0.1-0.1,0.2-0.2,0.3-0.3c0.3-0.2,0.6-0.4,0.9-0.7
		c0.3-0.2,0.6-0.4,0.9-0.7c0.1,0.2,0.2,0.6,0.3,1.2c0,0.1,0,0.2,0,0.3c0,0.1,0.1,0.2,0.2,0.3C199.6,93.2,199.8,93.2,200,92.7z
		 M201.6,87.9c0.1-0.1,0.1-0.3,0.1-0.5c-0.1-0.4-0.2-0.8-0.3-1.1c-0.1-0.3-0.1-0.7-0.3-1c-0.1-0.3-0.3-0.6-0.5-0.6
		c-0.2-0.1-0.5-0.1-0.7,0.2c-0.3,0.2-0.6,0.4-0.8,0.6c-0.2,0.2-0.5,0.5-0.8,0.7c-0.1,0.2-0.2,0.4-0.2,0.4c-0.1,0.1,0,0.3,0.1,0.5
		c0.1,0,0.1,0,0.2,0c0.1,0,0.1,0,0.3,0c0.1,0,0.2-0.1,0.3-0.2l1.2-1.2c0.1,0.3,0.2,0.6,0.2,0.8c0,0.2,0.1,0.5,0.1,0.8
		c0,0.1,0,0.2,0,0.3c0,0.1,0.1,0.2,0.2,0.3c0.1,0.1,0.1,0.2,0.3,0.2c0.1,0,0.2,0,0.3,0C201.6,87.9,201.7,87.9,201.6,87.9z
		 M203.6,81.6c0.1-0.1,0.1-0.3,0.1-0.5c-0.1-0.3-0.1-0.6-0.1-0.8c0-0.2-0.1-0.5-0.2-0.8c-0.1-0.2-0.1-0.3-0.2-0.5
		c-0.1-0.2-0.2-0.3-0.4-0.3c-0.3-0.1-0.6,0.1-1,0.4l-1.6,1.3c-0.2,0.2-0.3,0.3-0.3,0.4c-0.1,0.2,0,0.3,0.1,0.4
		c0.1,0.1,0.3,0.2,0.5,0.2c0.1,0,0.2-0.1,0.3-0.3c0.3-0.2,0.6-0.5,0.8-0.7c0.2-0.2,0.5-0.5,0.8-0.7c0.2,0.3,0.3,0.7,0.3,1
		c0,0.3,0.1,0.6,0.2,0.8c0.2,0.2,0.4,0.2,0.6,0H203.6z M205.1,76.5c0.1-0.1,0.1-0.3,0.1-0.5c-0.1-0.3-0.2-0.6-0.2-0.9
		c0-0.3-0.1-0.6-0.2-0.9c-0.1-0.5-0.3-0.7-0.5-0.8c-0.2-0.1-0.3,0-0.5,0c-0.1,0.1-0.3,0.2-0.4,0.2c-0.3,0.3-0.6,0.6-0.8,0.8
		c-0.2,0.2-0.5,0.5-0.8,0.7c0,0.1,0,0.1-0.1,0.2c-0.1,0.1-0.1,0.1-0.1,0.3c-0.1,0.3,0.1,0.5,0.5,0.5c0.2,0,0.3-0.1,0.4-0.3
		c0.2-0.2,0.4-0.4,0.7-0.6c0.2-0.2,0.4-0.4,0.7-0.6c0,0.2,0,0.4,0,0.6c0,0.2,0.1,0.4,0.1,0.7c0,0.2,0.1,0.4,0.3,0.6
		c0.1,0.2,0.3,0.3,0.6,0.1C205,76.6,205,76.5,205.1,76.5z M203.8,70.5c-0.1,0.1-0.2,0.2-0.2,0.3c0,0.1,0,0.2,0.1,0.4
		c0.1,0.1,0.2,0.2,0.4,0.1c0.2,0,0.3-0.1,0.4-0.2c0.2-0.2,0.4-0.3,0.6-0.5c0.2-0.2,0.4-0.3,0.6-0.5c0.1,0.5,0.2,1.1,0.4,1.7
		c0,0.2,0.1,0.4,0.2,0.5c0.1,0.2,0.3,0.2,0.4,0.2c0.2-0.1,0.3-0.2,0.3-0.4c0.1-0.1,0-0.2-0.1-0.3c-0.1-0.8-0.2-1.5-0.5-2.2
		c-0.1-0.3-0.3-0.6-0.5-0.7c-0.2,0-0.4,0.1-0.6,0.3c-0.2,0.2-0.5,0.3-0.7,0.5c-0.2,0.2-0.5,0.3-0.8,0.5c0,0.1,0,0.1-0.1,0.1
		C203.8,70.4,203.8,70.5,203.8,70.5z"/>
	<path class="st0" d="M211,107.6c-0.5,1.3-0.9,2.6-1.3,3.8c-0.4,1.3-1,2.4-2,3.4c-1-0.6-2.1-1.3-3.2-2c-1.1-0.7-2.1-1.4-3.2-2.1
		c1.5-4,2.9-8.1,4.3-12.2c1.4-4.1,2.8-8.2,4.2-12.3c1-2.8,2-5.5,3-8.2c1-2.7,2-5.4,3-8.2c1.7,0,3.4,0,5.1-0.1
		c1.7-0.1,3.4-0.1,5.1-0.2c1.7,3.8,3.3,7.7,4.9,11.6c1.6,3.9,3.2,7.8,4.9,11.6c1.2,2.7,2.3,5.3,3.5,7.9c1.2,2.6,2.3,5.3,3.4,7.9
		c-1.2,0.6-2.3,1.3-3.4,2c-1.1,0.7-2.2,1.4-3.4,2.1c-0.8-1.9-1.6-3.7-2.4-5.5c-0.8-1.8-1.6-3.7-2.4-5.5c-3.1-0.2-6.1-0.2-9.1,0.1
		c-3,0.3-6,0.3-9,0c-0.3,1-0.7,2-1.1,3C211.6,105.7,211.3,106.7,211,107.6z M221.3,78.5c-1,2.6-1.9,5.2-2.9,7.7
		c-0.9,2.5-1.8,5.1-2.7,7.7c2,0,4-0.1,6-0.2c1.9-0.1,3.9-0.2,6-0.2c-1.1-2.6-2.2-5.1-3.2-7.6C223.5,83.5,222.4,81,221.3,78.5z"/>
	<path class="st0" d="M270.4,103.5c-0.4,1.9-1.2,3.7-2.3,5.3c-1.1,1.6-2.5,3-4.1,4.1c-1.6,1.1-3.3,1.9-5.2,2.4
		c-1.9,0.5-3.8,0.5-5.7,0c-1.3-0.3-2.4-0.9-3.4-1.6c-1-0.7-1.9-1.6-2.7-2.6c-0.8-1-1.4-2.1-2-3.2c-0.5-1.2-0.9-2.4-1.1-3.6
		c1.3-0.3,2.6-0.7,3.9-1c1.2-0.3,2.5-0.6,3.9-0.9c0.3,0.8,0.6,1.6,1,2.5c0.3,0.8,0.9,1.5,1.6,2c0.6,0.5,1.3,0.6,2,0.5
		c0.7-0.1,1.3-0.4,1.9-0.7c1.2-0.7,2.2-1.6,3-2.8c0.8-1.2,1.1-2.5,0.7-3.9c-0.1-0.6-0.3-1.3-0.6-2c-0.3-0.7-0.8-1.1-1.6-1.2
		c-1.7-0.5-3.4-0.9-5-1.2c-1.7-0.3-3.2-1-4.7-2c-1.7-1.1-3.1-2.6-4.1-4.4c-1-1.8-1.7-3.8-1.9-5.8c-0.3-2-0.1-4.1,0.5-6.1
		c0.6-2,1.7-3.7,3.2-5.2c0.8-0.8,1.7-1.5,2.8-2c1-0.6,2.1-0.9,3.3-1.2c1.1-0.2,2.3-0.3,3.4-0.1c1.1,0.1,2.2,0.5,3.3,1.1
		c1.6,0.9,2.9,2.1,3.9,3.6c1,1.5,1.7,3.2,2.2,4.8c-1.3,0.5-2.7,0.9-4.1,1.3c-1.4,0.4-2.7,0.8-4.1,1.3c-0.3-0.6-0.6-1.3-0.9-2.1
		c-0.3-0.8-0.8-1.2-1.7-1.5c-1.2,0-2.1,0.5-2.8,1.6c-0.6,1-0.9,2.1-0.7,3.2c0.2,1,0.5,2,1,2.9c0.5,1,1.3,1.6,2.3,1.9
		c0.9,0.3,1.8,0.5,2.7,0.7c0.9,0.2,1.8,0.4,2.7,0.6c0.9,0.2,1.8,0.5,2.6,0.8c0.8,0.3,1.6,0.8,2.3,1.4c1.9,1.6,3.2,3.5,3.9,5.9
		C270.6,98.9,270.8,101.2,270.4,103.5z"/>
	<path class="st0" d="M293.5,77.5V91h22.4v4.4h-22.4v14.3h24.8v4.4h-29.6V73h29.6v4.4H293.5z"/>
	<path class="st0" d="M343.8,73h4.7v41.2h-4.7V73z"/>
	<path class="st0" d="M358.9,73h4.7l25.6,33.5V73h4.7v41.2h-4.7l-25.6-33.5v33.5h-4.7V73z"/>
	<path class="st0" d="M402.5,93.6c0-11.6,9.7-21.3,21.1-21.3c5.7,0,11,2.4,14.8,6.3l-3.2,3.2c-3-3.2-7.1-5.2-11.6-5.2
		c-8.9,0-16.4,7.8-16.4,17c0,9.2,7.5,17,16.4,17c4.5,0,8.6-2,11.6-5.2l3.2,3.2c-3.8,3.8-9.1,6.3-14.8,6.3
		C412.3,115,402.5,105.2,402.5,93.6z"/>
	<path class="st0" d="M471.5,109.8v4.4h-27.2V73h4.7v36.8H471.5z"/>
	<path class="st0" d="M478.7,97.2V73h4.7v24.1c0,7.9,5.2,13.6,12.5,13.6c7.3,0,12.5-5.6,12.5-13.6V73h4.7v24.1
		c0,10.4-7.1,17.8-17.2,17.8C485.8,115,478.7,107.6,478.7,97.2z"/>
	<path class="st0" d="M521,108.4l2.9-3.7c3.5,3.5,7.7,5.9,13.5,5.9c6.4,0,9.6-3.5,9.6-7.2c0-4.4-3.9-6.1-11.1-7.8
		c-8.3-1.9-13.5-4.5-13.5-11.6c0-6.6,5.9-11.8,13.8-11.8c6.1,0,10.7,2.4,14.5,5.9l-2.9,3.7c-3.4-3.3-7.5-5.3-11.8-5.3
		c-5.1,0-8.8,3.4-8.8,7.1c0,4.3,4.1,5.8,11.1,7.4c7.9,1.9,13.5,4.7,13.5,11.9c0,6.5-4.9,11.9-14.5,11.9
		C530.5,114.9,525.2,112.5,521,108.4z"/>
	<path class="st0" d="M559.8,73h4.7v41.2h-4.7V73z"/>
	<path class="st0" d="M612.6,73l-18.2,41.2h-5.1L571.1,73h5.1l15.7,35.5L607.5,73H612.6z"/>
	<path class="st0" d="M643.3,104.9h-23l-4.1,9.4h-5.1L629.3,73h5.1l18.2,41.2h-5.1L643.3,104.9z M641.4,100.5l-9.5-21.7l-9.6,21.7
		H641.4z"/>
	<path class="st0" d="M657.2,108.4l2.9-3.7c3.5,3.5,7.7,5.9,13.5,5.9c6.4,0,9.6-3.5,9.6-7.2c0-4.4-3.9-6.1-11.1-7.8
		c-8.3-1.9-13.5-4.5-13.5-11.6c0-6.6,5.9-11.8,13.8-11.8c6.1,0,10.7,2.4,14.5,5.9l-2.9,3.7c-3.4-3.3-7.5-5.3-11.8-5.3
		c-5.1,0-8.8,3.4-8.8,7.1c0,4.3,4.1,5.8,11.1,7.4C682.4,93,688,95.8,688,103c0,6.5-4.9,11.9-14.5,11.9
		C666.7,114.9,661.4,112.5,657.2,108.4z"/>
</g>
</svg>
